<?xml version="1.0" encoding="utf-8" standalone="no"?>
<!DOCTYPE svg PUBLIC "-//W3C//DTD SVG 1.1//EN"
  "http://www.w3.org/Graphics/SVG/1.1/DTD/svg11.dtd">
<svg xmlns:xlink="http://www.w3.org/1999/xlink" width="1008pt" height="576pt" viewBox="0 0 1008 576" xmlns="http://www.w3.org/2000/svg" version="1.1">
 <metadata>
  <rdf:RDF xmlns:dc="http://purl.org/dc/elements/1.1/" xmlns:cc="http://creativecommons.org/ns#" xmlns:rdf="http://www.w3.org/1999/02/22-rdf-syntax-ns#">
   <cc:Work>
    <dc:type rdf:resource="http://purl.org/dc/dcmitype/StillImage"/>
    <dc:date>2025-09-16T04:20:25.571533</dc:date>
    <dc:format>image/svg+xml</dc:format>
    <dc:creator>
     <cc:Agent>
      <dc:title>Matplotlib v3.10.6, https://matplotlib.org/</dc:title>
     </cc:Agent>
    </dc:creator>
   </cc:Work>
  </rdf:RDF>
 </metadata>
 <defs>
  <style type="text/css">*{stroke-linejoin: round; stroke-linecap: butt}</style>
 </defs>
 <g id="figure_1">
  <g id="patch_1">
   <path d="M 0 576 
L 1008 576 
L 1008 0 
L 0 0 
z
" style="fill: #ffffff"/>
  </g>
  <g id="axes_1">
   <g id="patch_2">
    <path d="M 54.47 530.44 
L 885.28 530.44 
L 885.28 28.32 
L 54.47 28.32 
z
" style="fill: #ffffff"/>
   </g>
   <g id="matplotlib.axis_1">
    <g id="xtick_1">
     <g id="line2d_1">
      <path d="M 92.234091 530.44 
L 92.234091 28.32 
" clip-path="url(#p86b61d3a71)" style="fill: none; stroke-dasharray: 2.96,1.28; stroke-dashoffset: 0; stroke: #b0b0b0; stroke-opacity: 0.7; stroke-width: 0.8"/>
     </g>
     <g id="line2d_2">
      <defs>
       <path id="m5f29d0a901" d="M 0 0 
L 0 3.5 
" style="stroke: #000000; stroke-width: 0.8"/>
      </defs>
      <g>
       <use xlink:href="#m5f29d0a901" x="92.234091" y="530.44" style="stroke: #000000; stroke-width: 0.8"/>
      </g>
     </g>
     <g id="text_1">
      <!-- 1964 -->
      <g transform="translate(79.509091 545.038437) scale(0.1 -0.1)">
       <defs>
        <path id="DejaVuSans-31" d="M 794 531 
L 1825 531 
L 1825 4091 
L 703 3866 
L 703 4441 
L 1819 4666 
L 2450 4666 
L 2450 531 
L 3481 531 
L 3481 0 
L 794 0 
L 794 531 
z
" transform="scale(0.015625)"/>
        <path id="DejaVuSans-39" d="M 703 97 
L 703 672 
Q 941 559 1184 500 
Q 1428 441 1663 441 
Q 2288 441 2617 861 
Q 2947 1281 2994 2138 
Q 2813 1869 2534 1725 
Q 2256 1581 1919 1581 
Q 1219 1581 811 2004 
Q 403 2428 403 3163 
Q 403 3881 828 4315 
Q 1253 4750 1959 4750 
Q 2769 4750 3195 4129 
Q 3622 3509 3622 2328 
Q 3622 1225 3098 567 
Q 2575 -91 1691 -91 
Q 1453 -91 1209 -44 
Q 966 3 703 97 
z
M 1959 2075 
Q 2384 2075 2632 2365 
Q 2881 2656 2881 3163 
Q 2881 3666 2632 3958 
Q 2384 4250 1959 4250 
Q 1534 4250 1286 3958 
Q 1038 3666 1038 3163 
Q 1038 2656 1286 2365 
Q 1534 2075 1959 2075 
z
" transform="scale(0.015625)"/>
        <path id="DejaVuSans-36" d="M 2113 2584 
Q 1688 2584 1439 2293 
Q 1191 2003 1191 1497 
Q 1191 994 1439 701 
Q 1688 409 2113 409 
Q 2538 409 2786 701 
Q 3034 994 3034 1497 
Q 3034 2003 2786 2293 
Q 2538 2584 2113 2584 
z
M 3366 4563 
L 3366 3988 
Q 3128 4100 2886 4159 
Q 2644 4219 2406 4219 
Q 1781 4219 1451 3797 
Q 1122 3375 1075 2522 
Q 1259 2794 1537 2939 
Q 1816 3084 2150 3084 
Q 2853 3084 3261 2657 
Q 3669 2231 3669 1497 
Q 3669 778 3244 343 
Q 2819 -91 2113 -91 
Q 1303 -91 875 529 
Q 447 1150 447 2328 
Q 447 3434 972 4092 
Q 1497 4750 2381 4750 
Q 2619 4750 2861 4703 
Q 3103 4656 3366 4563 
z
" transform="scale(0.015625)"/>
        <path id="DejaVuSans-34" d="M 2419 4116 
L 825 1625 
L 2419 1625 
L 2419 4116 
z
M 2253 4666 
L 3047 4666 
L 3047 1625 
L 3713 1625 
L 3713 1100 
L 3047 1100 
L 3047 0 
L 2419 0 
L 2419 1100 
L 313 1100 
L 313 1709 
L 2253 4666 
z
" transform="scale(0.015625)"/>
       </defs>
       <use xlink:href="#DejaVuSans-31"/>
       <use xlink:href="#DejaVuSans-39" transform="translate(63.623047 0)"/>
       <use xlink:href="#DejaVuSans-36" transform="translate(127.246094 0)"/>
       <use xlink:href="#DejaVuSans-34" transform="translate(190.869141 0)"/>
      </g>
     </g>
    </g>
    <g id="xtick_2">
     <g id="line2d_3">
      <path d="M 131.985766 530.44 
L 131.985766 28.32 
" clip-path="url(#p86b61d3a71)" style="fill: none; stroke-dasharray: 2.96,1.28; stroke-dashoffset: 0; stroke: #b0b0b0; stroke-opacity: 0.7; stroke-width: 0.8"/>
     </g>
     <g id="line2d_4">
      <g>
       <use xlink:href="#m5f29d0a901" x="131.985766" y="530.44" style="stroke: #000000; stroke-width: 0.8"/>
      </g>
     </g>
     <g id="text_2">
      <!-- 2016 -->
      <g transform="translate(119.260766 545.038437) scale(0.1 -0.1)">
       <defs>
        <path id="DejaVuSans-32" d="M 1228 531 
L 3431 531 
L 3431 0 
L 469 0 
L 469 531 
Q 828 903 1448 1529 
Q 2069 2156 2228 2338 
Q 2531 2678 2651 2914 
Q 2772 3150 2772 3378 
Q 2772 3750 2511 3984 
Q 2250 4219 1831 4219 
Q 1534 4219 1204 4116 
Q 875 4013 500 3803 
L 500 4441 
Q 881 4594 1212 4672 
Q 1544 4750 1819 4750 
Q 2544 4750 2975 4387 
Q 3406 4025 3406 3419 
Q 3406 3131 3298 2873 
Q 3191 2616 2906 2266 
Q 2828 2175 2409 1742 
Q 1991 1309 1228 531 
z
" transform="scale(0.015625)"/>
        <path id="DejaVuSans-30" d="M 2034 4250 
Q 1547 4250 1301 3770 
Q 1056 3291 1056 2328 
Q 1056 1369 1301 889 
Q 1547 409 2034 409 
Q 2525 409 2770 889 
Q 3016 1369 3016 2328 
Q 3016 3291 2770 3770 
Q 2525 4250 2034 4250 
z
M 2034 4750 
Q 2819 4750 3233 4129 
Q 3647 3509 3647 2328 
Q 3647 1150 3233 529 
Q 2819 -91 2034 -91 
Q 1250 -91 836 529 
Q 422 1150 422 2328 
Q 422 3509 836 4129 
Q 1250 4750 2034 4750 
z
" transform="scale(0.015625)"/>
       </defs>
       <use xlink:href="#DejaVuSans-32"/>
       <use xlink:href="#DejaVuSans-30" transform="translate(63.623047 0)"/>
       <use xlink:href="#DejaVuSans-31" transform="translate(127.246094 0)"/>
       <use xlink:href="#DejaVuSans-36" transform="translate(190.869141 0)"/>
      </g>
     </g>
    </g>
    <g id="xtick_3">
     <g id="line2d_5">
      <path d="M 171.73744 530.44 
L 171.73744 28.32 
" clip-path="url(#p86b61d3a71)" style="fill: none; stroke-dasharray: 2.96,1.28; stroke-dashoffset: 0; stroke: #b0b0b0; stroke-opacity: 0.7; stroke-width: 0.8"/>
     </g>
     <g id="line2d_6">
      <g>
       <use xlink:href="#m5f29d0a901" x="171.73744" y="530.44" style="stroke: #000000; stroke-width: 0.8"/>
      </g>
     </g>
     <g id="text_3">
      <!-- 2017 -->
      <g transform="translate(159.01244 545.038437) scale(0.1 -0.1)">
       <defs>
        <path id="DejaVuSans-37" d="M 525 4666 
L 3525 4666 
L 3525 4397 
L 1831 0 
L 1172 0 
L 2766 4134 
L 525 4134 
L 525 4666 
z
" transform="scale(0.015625)"/>
       </defs>
       <use xlink:href="#DejaVuSans-32"/>
       <use xlink:href="#DejaVuSans-30" transform="translate(63.623047 0)"/>
       <use xlink:href="#DejaVuSans-31" transform="translate(127.246094 0)"/>
       <use xlink:href="#DejaVuSans-37" transform="translate(190.869141 0)"/>
      </g>
     </g>
    </g>
    <g id="xtick_4">
     <g id="line2d_7">
      <path d="M 211.489115 530.44 
L 211.489115 28.32 
" clip-path="url(#p86b61d3a71)" style="fill: none; stroke-dasharray: 2.96,1.28; stroke-dashoffset: 0; stroke: #b0b0b0; stroke-opacity: 0.7; stroke-width: 0.8"/>
     </g>
     <g id="line2d_8">
      <g>
       <use xlink:href="#m5f29d0a901" x="211.489115" y="530.44" style="stroke: #000000; stroke-width: 0.8"/>
      </g>
     </g>
     <g id="text_4">
      <!-- 2018 -->
      <g transform="translate(198.764115 545.038437) scale(0.1 -0.1)">
       <defs>
        <path id="DejaVuSans-38" d="M 2034 2216 
Q 1584 2216 1326 1975 
Q 1069 1734 1069 1313 
Q 1069 891 1326 650 
Q 1584 409 2034 409 
Q 2484 409 2743 651 
Q 3003 894 3003 1313 
Q 3003 1734 2745 1975 
Q 2488 2216 2034 2216 
z
M 1403 2484 
Q 997 2584 770 2862 
Q 544 3141 544 3541 
Q 544 4100 942 4425 
Q 1341 4750 2034 4750 
Q 2731 4750 3128 4425 
Q 3525 4100 3525 3541 
Q 3525 3141 3298 2862 
Q 3072 2584 2669 2484 
Q 3125 2378 3379 2068 
Q 3634 1759 3634 1313 
Q 3634 634 3220 271 
Q 2806 -91 2034 -91 
Q 1263 -91 848 271 
Q 434 634 434 1313 
Q 434 1759 690 2068 
Q 947 2378 1403 2484 
z
M 1172 3481 
Q 1172 3119 1398 2916 
Q 1625 2713 2034 2713 
Q 2441 2713 2670 2916 
Q 2900 3119 2900 3481 
Q 2900 3844 2670 4047 
Q 2441 4250 2034 4250 
Q 1625 4250 1398 4047 
Q 1172 3844 1172 3481 
z
" transform="scale(0.015625)"/>
       </defs>
       <use xlink:href="#DejaVuSans-32"/>
       <use xlink:href="#DejaVuSans-30" transform="translate(63.623047 0)"/>
       <use xlink:href="#DejaVuSans-31" transform="translate(127.246094 0)"/>
       <use xlink:href="#DejaVuSans-38" transform="translate(190.869141 0)"/>
      </g>
     </g>
    </g>
    <g id="xtick_5">
     <g id="line2d_9">
      <path d="M 251.240789 530.44 
L 251.240789 28.32 
" clip-path="url(#p86b61d3a71)" style="fill: none; stroke-dasharray: 2.96,1.28; stroke-dashoffset: 0; stroke: #b0b0b0; stroke-opacity: 0.7; stroke-width: 0.8"/>
     </g>
     <g id="line2d_10">
      <g>
       <use xlink:href="#m5f29d0a901" x="251.240789" y="530.44" style="stroke: #000000; stroke-width: 0.8"/>
      </g>
     </g>
     <g id="text_5">
      <!-- 2019 -->
      <g transform="translate(238.515789 545.038437) scale(0.1 -0.1)">
       <use xlink:href="#DejaVuSans-32"/>
       <use xlink:href="#DejaVuSans-30" transform="translate(63.623047 0)"/>
       <use xlink:href="#DejaVuSans-31" transform="translate(127.246094 0)"/>
       <use xlink:href="#DejaVuSans-39" transform="translate(190.869141 0)"/>
      </g>
     </g>
    </g>
    <g id="xtick_6">
     <g id="line2d_11">
      <path d="M 290.992464 530.44 
L 290.992464 28.32 
" clip-path="url(#p86b61d3a71)" style="fill: none; stroke-dasharray: 2.96,1.28; stroke-dashoffset: 0; stroke: #b0b0b0; stroke-opacity: 0.7; stroke-width: 0.8"/>
     </g>
     <g id="line2d_12">
      <g>
       <use xlink:href="#m5f29d0a901" x="290.992464" y="530.44" style="stroke: #000000; stroke-width: 0.8"/>
      </g>
     </g>
     <g id="text_6">
      <!-- 2020 -->
      <g transform="translate(278.267464 545.038437) scale(0.1 -0.1)">
       <use xlink:href="#DejaVuSans-32"/>
       <use xlink:href="#DejaVuSans-30" transform="translate(63.623047 0)"/>
       <use xlink:href="#DejaVuSans-32" transform="translate(127.246094 0)"/>
       <use xlink:href="#DejaVuSans-30" transform="translate(190.869141 0)"/>
      </g>
     </g>
    </g>
    <g id="xtick_7">
     <g id="line2d_13">
      <path d="M 330.744139 530.44 
L 330.744139 28.32 
" clip-path="url(#p86b61d3a71)" style="fill: none; stroke-dasharray: 2.96,1.28; stroke-dashoffset: 0; stroke: #b0b0b0; stroke-opacity: 0.7; stroke-width: 0.8"/>
     </g>
     <g id="line2d_14">
      <g>
       <use xlink:href="#m5f29d0a901" x="330.744139" y="530.44" style="stroke: #000000; stroke-width: 0.8"/>
      </g>
     </g>
     <g id="text_7">
      <!-- 2021 -->
      <g transform="translate(318.019139 545.038437) scale(0.1 -0.1)">
       <use xlink:href="#DejaVuSans-32"/>
       <use xlink:href="#DejaVuSans-30" transform="translate(63.623047 0)"/>
       <use xlink:href="#DejaVuSans-32" transform="translate(127.246094 0)"/>
       <use xlink:href="#DejaVuSans-31" transform="translate(190.869141 0)"/>
      </g>
     </g>
    </g>
    <g id="xtick_8">
     <g id="line2d_15">
      <path d="M 370.495813 530.44 
L 370.495813 28.32 
" clip-path="url(#p86b61d3a71)" style="fill: none; stroke-dasharray: 2.96,1.28; stroke-dashoffset: 0; stroke: #b0b0b0; stroke-opacity: 0.7; stroke-width: 0.8"/>
     </g>
     <g id="line2d_16">
      <g>
       <use xlink:href="#m5f29d0a901" x="370.495813" y="530.44" style="stroke: #000000; stroke-width: 0.8"/>
      </g>
     </g>
     <g id="text_8">
      <!-- 2022 -->
      <g transform="translate(357.770813 545.038437) scale(0.1 -0.1)">
       <use xlink:href="#DejaVuSans-32"/>
       <use xlink:href="#DejaVuSans-30" transform="translate(63.623047 0)"/>
       <use xlink:href="#DejaVuSans-32" transform="translate(127.246094 0)"/>
       <use xlink:href="#DejaVuSans-32" transform="translate(190.869141 0)"/>
      </g>
     </g>
    </g>
    <g id="xtick_9">
     <g id="line2d_17">
      <path d="M 410.247488 530.44 
L 410.247488 28.32 
" clip-path="url(#p86b61d3a71)" style="fill: none; stroke-dasharray: 2.96,1.28; stroke-dashoffset: 0; stroke: #b0b0b0; stroke-opacity: 0.7; stroke-width: 0.8"/>
     </g>
     <g id="line2d_18">
      <g>
       <use xlink:href="#m5f29d0a901" x="410.247488" y="530.44" style="stroke: #000000; stroke-width: 0.8"/>
      </g>
     </g>
     <g id="text_9">
      <!-- 2023 -->
      <g transform="translate(397.522488 545.038437) scale(0.1 -0.1)">
       <defs>
        <path id="DejaVuSans-33" d="M 2597 2516 
Q 3050 2419 3304 2112 
Q 3559 1806 3559 1356 
Q 3559 666 3084 287 
Q 2609 -91 1734 -91 
Q 1441 -91 1130 -33 
Q 819 25 488 141 
L 488 750 
Q 750 597 1062 519 
Q 1375 441 1716 441 
Q 2309 441 2620 675 
Q 2931 909 2931 1356 
Q 2931 1769 2642 2001 
Q 2353 2234 1838 2234 
L 1294 2234 
L 1294 2753 
L 1863 2753 
Q 2328 2753 2575 2939 
Q 2822 3125 2822 3475 
Q 2822 3834 2567 4026 
Q 2313 4219 1838 4219 
Q 1578 4219 1281 4162 
Q 984 4106 628 3988 
L 628 4550 
Q 988 4650 1302 4700 
Q 1616 4750 1894 4750 
Q 2613 4750 3031 4423 
Q 3450 4097 3450 3541 
Q 3450 3153 3228 2886 
Q 3006 2619 2597 2516 
z
" transform="scale(0.015625)"/>
       </defs>
       <use xlink:href="#DejaVuSans-32"/>
       <use xlink:href="#DejaVuSans-30" transform="translate(63.623047 0)"/>
       <use xlink:href="#DejaVuSans-32" transform="translate(127.246094 0)"/>
       <use xlink:href="#DejaVuSans-33" transform="translate(190.869141 0)"/>
      </g>
     </g>
    </g>
    <g id="xtick_10">
     <g id="line2d_19">
      <path d="M 449.999163 530.44 
L 449.999163 28.32 
" clip-path="url(#p86b61d3a71)" style="fill: none; stroke-dasharray: 2.96,1.28; stroke-dashoffset: 0; stroke: #b0b0b0; stroke-opacity: 0.7; stroke-width: 0.8"/>
     </g>
     <g id="line2d_20">
      <g>
       <use xlink:href="#m5f29d0a901" x="449.999163" y="530.44" style="stroke: #000000; stroke-width: 0.8"/>
      </g>
     </g>
     <g id="text_10">
      <!-- 2024 -->
      <g transform="translate(437.274163 545.038437) scale(0.1 -0.1)">
       <use xlink:href="#DejaVuSans-32"/>
       <use xlink:href="#DejaVuSans-30" transform="translate(63.623047 0)"/>
       <use xlink:href="#DejaVuSans-32" transform="translate(127.246094 0)"/>
       <use xlink:href="#DejaVuSans-34" transform="translate(190.869141 0)"/>
      </g>
     </g>
    </g>
    <g id="xtick_11">
     <g id="line2d_21">
      <path d="M 489.750837 530.44 
L 489.750837 28.32 
" clip-path="url(#p86b61d3a71)" style="fill: none; stroke-dasharray: 2.96,1.28; stroke-dashoffset: 0; stroke: #b0b0b0; stroke-opacity: 0.7; stroke-width: 0.8"/>
     </g>
     <g id="line2d_22">
      <g>
       <use xlink:href="#m5f29d0a901" x="489.750837" y="530.44" style="stroke: #000000; stroke-width: 0.8"/>
      </g>
     </g>
     <g id="text_11">
      <!-- 2025 -->
      <g transform="translate(477.025837 545.038437) scale(0.1 -0.1)">
       <defs>
        <path id="DejaVuSans-35" d="M 691 4666 
L 3169 4666 
L 3169 4134 
L 1269 4134 
L 1269 2991 
Q 1406 3038 1543 3061 
Q 1681 3084 1819 3084 
Q 2600 3084 3056 2656 
Q 3513 2228 3513 1497 
Q 3513 744 3044 326 
Q 2575 -91 1722 -91 
Q 1428 -91 1123 -41 
Q 819 9 494 109 
L 494 744 
Q 775 591 1075 516 
Q 1375 441 1709 441 
Q 2250 441 2565 725 
Q 2881 1009 2881 1497 
Q 2881 1984 2565 2268 
Q 2250 2553 1709 2553 
Q 1456 2553 1204 2497 
Q 953 2441 691 2322 
L 691 4666 
z
" transform="scale(0.015625)"/>
       </defs>
       <use xlink:href="#DejaVuSans-32"/>
       <use xlink:href="#DejaVuSans-30" transform="translate(63.623047 0)"/>
       <use xlink:href="#DejaVuSans-32" transform="translate(127.246094 0)"/>
       <use xlink:href="#DejaVuSans-35" transform="translate(190.869141 0)"/>
      </g>
     </g>
    </g>
    <g id="xtick_12">
     <g id="line2d_23">
      <path d="M 529.502512 530.44 
L 529.502512 28.32 
" clip-path="url(#p86b61d3a71)" style="fill: none; stroke-dasharray: 2.96,1.28; stroke-dashoffset: 0; stroke: #b0b0b0; stroke-opacity: 0.7; stroke-width: 0.8"/>
     </g>
     <g id="line2d_24">
      <g>
       <use xlink:href="#m5f29d0a901" x="529.502512" y="530.44" style="stroke: #000000; stroke-width: 0.8"/>
      </g>
     </g>
     <g id="text_12">
      <!-- 2008 -->
      <g transform="translate(516.777512 545.038437) scale(0.1 -0.1)">
       <use xlink:href="#DejaVuSans-32"/>
       <use xlink:href="#DejaVuSans-30" transform="translate(63.623047 0)"/>
       <use xlink:href="#DejaVuSans-30" transform="translate(127.246094 0)"/>
       <use xlink:href="#DejaVuSans-38" transform="translate(190.869141 0)"/>
      </g>
     </g>
    </g>
    <g id="xtick_13">
     <g id="line2d_25">
      <path d="M 569.254187 530.44 
L 569.254187 28.32 
" clip-path="url(#p86b61d3a71)" style="fill: none; stroke-dasharray: 2.96,1.28; stroke-dashoffset: 0; stroke: #b0b0b0; stroke-opacity: 0.7; stroke-width: 0.8"/>
     </g>
     <g id="line2d_26">
      <g>
       <use xlink:href="#m5f29d0a901" x="569.254187" y="530.44" style="stroke: #000000; stroke-width: 0.8"/>
      </g>
     </g>
     <g id="text_13">
      <!-- 2009 -->
      <g transform="translate(556.529187 545.038437) scale(0.1 -0.1)">
       <use xlink:href="#DejaVuSans-32"/>
       <use xlink:href="#DejaVuSans-30" transform="translate(63.623047 0)"/>
       <use xlink:href="#DejaVuSans-30" transform="translate(127.246094 0)"/>
       <use xlink:href="#DejaVuSans-39" transform="translate(190.869141 0)"/>
      </g>
     </g>
    </g>
    <g id="xtick_14">
     <g id="line2d_27">
      <path d="M 609.005861 530.44 
L 609.005861 28.32 
" clip-path="url(#p86b61d3a71)" style="fill: none; stroke-dasharray: 2.96,1.28; stroke-dashoffset: 0; stroke: #b0b0b0; stroke-opacity: 0.7; stroke-width: 0.8"/>
     </g>
     <g id="line2d_28">
      <g>
       <use xlink:href="#m5f29d0a901" x="609.005861" y="530.44" style="stroke: #000000; stroke-width: 0.8"/>
      </g>
     </g>
     <g id="text_14">
      <!-- 2010 -->
      <g transform="translate(596.280861 545.038437) scale(0.1 -0.1)">
       <use xlink:href="#DejaVuSans-32"/>
       <use xlink:href="#DejaVuSans-30" transform="translate(63.623047 0)"/>
       <use xlink:href="#DejaVuSans-31" transform="translate(127.246094 0)"/>
       <use xlink:href="#DejaVuSans-30" transform="translate(190.869141 0)"/>
      </g>
     </g>
    </g>
    <g id="xtick_15">
     <g id="line2d_29">
      <path d="M 648.757536 530.44 
L 648.757536 28.32 
" clip-path="url(#p86b61d3a71)" style="fill: none; stroke-dasharray: 2.96,1.28; stroke-dashoffset: 0; stroke: #b0b0b0; stroke-opacity: 0.7; stroke-width: 0.8"/>
     </g>
     <g id="line2d_30">
      <g>
       <use xlink:href="#m5f29d0a901" x="648.757536" y="530.44" style="stroke: #000000; stroke-width: 0.8"/>
      </g>
     </g>
     <g id="text_15">
      <!-- 2011 -->
      <g transform="translate(636.032536 545.038437) scale(0.1 -0.1)">
       <use xlink:href="#DejaVuSans-32"/>
       <use xlink:href="#DejaVuSans-30" transform="translate(63.623047 0)"/>
       <use xlink:href="#DejaVuSans-31" transform="translate(127.246094 0)"/>
       <use xlink:href="#DejaVuSans-31" transform="translate(190.869141 0)"/>
      </g>
     </g>
    </g>
    <g id="xtick_16">
     <g id="line2d_31">
      <path d="M 688.509211 530.44 
L 688.509211 28.32 
" clip-path="url(#p86b61d3a71)" style="fill: none; stroke-dasharray: 2.96,1.28; stroke-dashoffset: 0; stroke: #b0b0b0; stroke-opacity: 0.7; stroke-width: 0.8"/>
     </g>
     <g id="line2d_32">
      <g>
       <use xlink:href="#m5f29d0a901" x="688.509211" y="530.44" style="stroke: #000000; stroke-width: 0.8"/>
      </g>
     </g>
     <g id="text_16">
      <!-- 2012 -->
      <g transform="translate(675.784211 545.038437) scale(0.1 -0.1)">
       <use xlink:href="#DejaVuSans-32"/>
       <use xlink:href="#DejaVuSans-30" transform="translate(63.623047 0)"/>
       <use xlink:href="#DejaVuSans-31" transform="translate(127.246094 0)"/>
       <use xlink:href="#DejaVuSans-32" transform="translate(190.869141 0)"/>
      </g>
     </g>
    </g>
    <g id="xtick_17">
     <g id="line2d_33">
      <path d="M 728.260885 530.44 
L 728.260885 28.32 
" clip-path="url(#p86b61d3a71)" style="fill: none; stroke-dasharray: 2.96,1.28; stroke-dashoffset: 0; stroke: #b0b0b0; stroke-opacity: 0.7; stroke-width: 0.8"/>
     </g>
     <g id="line2d_34">
      <g>
       <use xlink:href="#m5f29d0a901" x="728.260885" y="530.44" style="stroke: #000000; stroke-width: 0.8"/>
      </g>
     </g>
     <g id="text_17">
      <!-- 2013 -->
      <g transform="translate(715.535885 545.038437) scale(0.1 -0.1)">
       <use xlink:href="#DejaVuSans-32"/>
       <use xlink:href="#DejaVuSans-30" transform="translate(63.623047 0)"/>
       <use xlink:href="#DejaVuSans-31" transform="translate(127.246094 0)"/>
       <use xlink:href="#DejaVuSans-33" transform="translate(190.869141 0)"/>
      </g>
     </g>
    </g>
    <g id="xtick_18">
     <g id="line2d_35">
      <path d="M 768.01256 530.44 
L 768.01256 28.32 
" clip-path="url(#p86b61d3a71)" style="fill: none; stroke-dasharray: 2.96,1.28; stroke-dashoffset: 0; stroke: #b0b0b0; stroke-opacity: 0.7; stroke-width: 0.8"/>
     </g>
     <g id="line2d_36">
      <g>
       <use xlink:href="#m5f29d0a901" x="768.01256" y="530.44" style="stroke: #000000; stroke-width: 0.8"/>
      </g>
     </g>
     <g id="text_18">
      <!-- 2014 -->
      <g transform="translate(755.28756 545.038437) scale(0.1 -0.1)">
       <use xlink:href="#DejaVuSans-32"/>
       <use xlink:href="#DejaVuSans-30" transform="translate(63.623047 0)"/>
       <use xlink:href="#DejaVuSans-31" transform="translate(127.246094 0)"/>
       <use xlink:href="#DejaVuSans-34" transform="translate(190.869141 0)"/>
      </g>
     </g>
    </g>
    <g id="xtick_19">
     <g id="line2d_37">
      <path d="M 807.764234 530.44 
L 807.764234 28.32 
" clip-path="url(#p86b61d3a71)" style="fill: none; stroke-dasharray: 2.96,1.28; stroke-dashoffset: 0; stroke: #b0b0b0; stroke-opacity: 0.7; stroke-width: 0.8"/>
     </g>
     <g id="line2d_38">
      <g>
       <use xlink:href="#m5f29d0a901" x="807.764234" y="530.44" style="stroke: #000000; stroke-width: 0.8"/>
      </g>
     </g>
     <g id="text_19">
      <!-- 2015 -->
      <g transform="translate(795.039234 545.038437) scale(0.1 -0.1)">
       <use xlink:href="#DejaVuSans-32"/>
       <use xlink:href="#DejaVuSans-30" transform="translate(63.623047 0)"/>
       <use xlink:href="#DejaVuSans-31" transform="translate(127.246094 0)"/>
       <use xlink:href="#DejaVuSans-35" transform="translate(190.869141 0)"/>
      </g>
     </g>
    </g>
    <g id="xtick_20">
     <g id="line2d_39">
      <path d="M 847.515909 530.44 
L 847.515909 28.32 
" clip-path="url(#p86b61d3a71)" style="fill: none; stroke-dasharray: 2.96,1.28; stroke-dashoffset: 0; stroke: #b0b0b0; stroke-opacity: 0.7; stroke-width: 0.8"/>
     </g>
     <g id="line2d_40">
      <g>
       <use xlink:href="#m5f29d0a901" x="847.515909" y="530.44" style="stroke: #000000; stroke-width: 0.8"/>
      </g>
     </g>
     <g id="text_20">
      <!-- 1987 -->
      <g transform="translate(834.790909 545.038437) scale(0.1 -0.1)">
       <use xlink:href="#DejaVuSans-31"/>
       <use xlink:href="#DejaVuSans-39" transform="translate(63.623047 0)"/>
       <use xlink:href="#DejaVuSans-38" transform="translate(127.246094 0)"/>
       <use xlink:href="#DejaVuSans-37" transform="translate(190.869141 0)"/>
      </g>
     </g>
    </g>
    <g id="text_21">
     <!-- Year -->
     <g transform="translate(455.0525 561.755937) scale(0.14 -0.14)">
      <defs>
       <path id="DejaVuSans-59" d="M -13 4666 
L 666 4666 
L 1959 2747 
L 3244 4666 
L 3922 4666 
L 2272 2222 
L 2272 0 
L 1638 0 
L 1638 2222 
L -13 4666 
z
" transform="scale(0.015625)"/>
       <path id="DejaVuSans-65" d="M 3597 1894 
L 3597 1613 
L 953 1613 
Q 991 1019 1311 708 
Q 1631 397 2203 397 
Q 2534 397 2845 478 
Q 3156 559 3463 722 
L 3463 178 
Q 3153 47 2828 -22 
Q 2503 -91 2169 -91 
Q 1331 -91 842 396 
Q 353 884 353 1716 
Q 353 2575 817 3079 
Q 1281 3584 2069 3584 
Q 2775 3584 3186 3129 
Q 3597 2675 3597 1894 
z
M 3022 2063 
Q 3016 2534 2758 2815 
Q 2500 3097 2075 3097 
Q 1594 3097 1305 2825 
Q 1016 2553 972 2059 
L 3022 2063 
z
" transform="scale(0.015625)"/>
       <path id="DejaVuSans-61" d="M 2194 1759 
Q 1497 1759 1228 1600 
Q 959 1441 959 1056 
Q 959 750 1161 570 
Q 1363 391 1709 391 
Q 2188 391 2477 730 
Q 2766 1069 2766 1631 
L 2766 1759 
L 2194 1759 
z
M 3341 1997 
L 3341 0 
L 2766 0 
L 2766 531 
Q 2569 213 2275 61 
Q 1981 -91 1556 -91 
Q 1019 -91 701 211 
Q 384 513 384 1019 
Q 384 1609 779 1909 
Q 1175 2209 1959 2209 
L 2766 2209 
L 2766 2266 
Q 2766 2663 2505 2880 
Q 2244 3097 1772 3097 
Q 1472 3097 1187 3025 
Q 903 2953 641 2809 
L 641 3341 
Q 956 3463 1253 3523 
Q 1550 3584 1831 3584 
Q 2591 3584 2966 3190 
Q 3341 2797 3341 1997 
z
" transform="scale(0.015625)"/>
       <path id="DejaVuSans-72" d="M 2631 2963 
Q 2534 3019 2420 3045 
Q 2306 3072 2169 3072 
Q 1681 3072 1420 2755 
Q 1159 2438 1159 1844 
L 1159 0 
L 581 0 
L 581 3500 
L 1159 3500 
L 1159 2956 
Q 1341 3275 1631 3429 
Q 1922 3584 2338 3584 
Q 2397 3584 2469 3576 
Q 2541 3569 2628 3553 
L 2631 2963 
z
" transform="scale(0.015625)"/>
      </defs>
      <use xlink:href="#DejaVuSans-59"/>
      <use xlink:href="#DejaVuSans-65" transform="translate(47.833984 0)"/>
      <use xlink:href="#DejaVuSans-61" transform="translate(109.357422 0)"/>
      <use xlink:href="#DejaVuSans-72" transform="translate(170.636719 0)"/>
     </g>
    </g>
   </g>
   <g id="matplotlib.axis_2">
    <g id="ytick_1">
     <g id="line2d_41">
      <path d="M 54.47 510.83096 
L 885.28 510.83096 
" clip-path="url(#p86b61d3a71)" style="fill: none; stroke-dasharray: 2.96,1.28; stroke-dashoffset: 0; stroke: #b0b0b0; stroke-opacity: 0.7; stroke-width: 0.8"/>
     </g>
     <g id="line2d_42">
      <defs>
       <path id="mc1bee7dc16" d="M 0 0 
L -3.5 0 
" style="stroke: #000000; stroke-width: 0.8"/>
      </defs>
      <g>
       <use xlink:href="#mc1bee7dc16" x="54.47" y="510.83096" style="stroke: #000000; stroke-width: 0.8"/>
      </g>
     </g>
     <g id="text_22">
      <!-- 0 -->
      <g transform="translate(41.1075 514.630179) scale(0.1 -0.1)">
       <use xlink:href="#DejaVuSans-30"/>
      </g>
     </g>
    </g>
    <g id="ytick_2">
     <g id="line2d_43">
      <path d="M 54.47 446.539027 
L 885.28 446.539027 
" clip-path="url(#p86b61d3a71)" style="fill: none; stroke-dasharray: 2.96,1.28; stroke-dashoffset: 0; stroke: #b0b0b0; stroke-opacity: 0.7; stroke-width: 0.8"/>
     </g>
     <g id="line2d_44">
      <g>
       <use xlink:href="#mc1bee7dc16" x="54.47" y="446.539027" style="stroke: #000000; stroke-width: 0.8"/>
      </g>
     </g>
     <g id="text_23">
      <!-- 20 -->
      <g transform="translate(34.745 450.338246) scale(0.1 -0.1)">
       <use xlink:href="#DejaVuSans-32"/>
       <use xlink:href="#DejaVuSans-30" transform="translate(63.623047 0)"/>
      </g>
     </g>
    </g>
    <g id="ytick_3">
     <g id="line2d_45">
      <path d="M 54.47 382.247093 
L 885.28 382.247093 
" clip-path="url(#p86b61d3a71)" style="fill: none; stroke-dasharray: 2.96,1.28; stroke-dashoffset: 0; stroke: #b0b0b0; stroke-opacity: 0.7; stroke-width: 0.8"/>
     </g>
     <g id="line2d_46">
      <g>
       <use xlink:href="#mc1bee7dc16" x="54.47" y="382.247093" style="stroke: #000000; stroke-width: 0.8"/>
      </g>
     </g>
     <g id="text_24">
      <!-- 40 -->
      <g transform="translate(34.745 386.046312) scale(0.1 -0.1)">
       <use xlink:href="#DejaVuSans-34"/>
       <use xlink:href="#DejaVuSans-30" transform="translate(63.623047 0)"/>
      </g>
     </g>
    </g>
    <g id="ytick_4">
     <g id="line2d_47">
      <path d="M 54.47 317.95516 
L 885.28 317.95516 
" clip-path="url(#p86b61d3a71)" style="fill: none; stroke-dasharray: 2.96,1.28; stroke-dashoffset: 0; stroke: #b0b0b0; stroke-opacity: 0.7; stroke-width: 0.8"/>
     </g>
     <g id="line2d_48">
      <g>
       <use xlink:href="#mc1bee7dc16" x="54.47" y="317.95516" style="stroke: #000000; stroke-width: 0.8"/>
      </g>
     </g>
     <g id="text_25">
      <!-- 60 -->
      <g transform="translate(34.745 321.754379) scale(0.1 -0.1)">
       <use xlink:href="#DejaVuSans-36"/>
       <use xlink:href="#DejaVuSans-30" transform="translate(63.623047 0)"/>
      </g>
     </g>
    </g>
    <g id="ytick_5">
     <g id="line2d_49">
      <path d="M 54.47 253.663227 
L 885.28 253.663227 
" clip-path="url(#p86b61d3a71)" style="fill: none; stroke-dasharray: 2.96,1.28; stroke-dashoffset: 0; stroke: #b0b0b0; stroke-opacity: 0.7; stroke-width: 0.8"/>
     </g>
     <g id="line2d_50">
      <g>
       <use xlink:href="#mc1bee7dc16" x="54.47" y="253.663227" style="stroke: #000000; stroke-width: 0.8"/>
      </g>
     </g>
     <g id="text_26">
      <!-- 80 -->
      <g transform="translate(34.745 257.462445) scale(0.1 -0.1)">
       <use xlink:href="#DejaVuSans-38"/>
       <use xlink:href="#DejaVuSans-30" transform="translate(63.623047 0)"/>
      </g>
     </g>
    </g>
    <g id="ytick_6">
     <g id="line2d_51">
      <path d="M 54.47 189.371293 
L 885.28 189.371293 
" clip-path="url(#p86b61d3a71)" style="fill: none; stroke-dasharray: 2.96,1.28; stroke-dashoffset: 0; stroke: #b0b0b0; stroke-opacity: 0.7; stroke-width: 0.8"/>
     </g>
     <g id="line2d_52">
      <g>
       <use xlink:href="#mc1bee7dc16" x="54.47" y="189.371293" style="stroke: #000000; stroke-width: 0.8"/>
      </g>
     </g>
     <g id="text_27">
      <!-- 100 -->
      <g transform="translate(28.3825 193.170512) scale(0.1 -0.1)">
       <use xlink:href="#DejaVuSans-31"/>
       <use xlink:href="#DejaVuSans-30" transform="translate(63.623047 0)"/>
       <use xlink:href="#DejaVuSans-30" transform="translate(127.246094 0)"/>
      </g>
     </g>
    </g>
    <g id="ytick_7">
     <g id="line2d_53">
      <path d="M 54.47 125.07936 
L 885.28 125.07936 
" clip-path="url(#p86b61d3a71)" style="fill: none; stroke-dasharray: 2.96,1.28; stroke-dashoffset: 0; stroke: #b0b0b0; stroke-opacity: 0.7; stroke-width: 0.8"/>
     </g>
     <g id="line2d_54">
      <g>
       <use xlink:href="#mc1bee7dc16" x="54.47" y="125.07936" style="stroke: #000000; stroke-width: 0.8"/>
      </g>
     </g>
     <g id="text_28">
      <!-- 120 -->
      <g transform="translate(28.3825 128.878579) scale(0.1 -0.1)">
       <use xlink:href="#DejaVuSans-31"/>
       <use xlink:href="#DejaVuSans-32" transform="translate(63.623047 0)"/>
       <use xlink:href="#DejaVuSans-30" transform="translate(127.246094 0)"/>
      </g>
     </g>
    </g>
    <g id="ytick_8">
     <g id="line2d_55">
      <path d="M 54.47 60.787426 
L 885.28 60.787426 
" clip-path="url(#p86b61d3a71)" style="fill: none; stroke-dasharray: 2.96,1.28; stroke-dashoffset: 0; stroke: #b0b0b0; stroke-opacity: 0.7; stroke-width: 0.8"/>
     </g>
     <g id="line2d_56">
      <g>
       <use xlink:href="#mc1bee7dc16" x="54.47" y="60.787426" style="stroke: #000000; stroke-width: 0.8"/>
      </g>
     </g>
     <g id="text_29">
      <!-- 140 -->
      <g transform="translate(28.3825 64.586645) scale(0.1 -0.1)">
       <use xlink:href="#DejaVuSans-31"/>
       <use xlink:href="#DejaVuSans-34" transform="translate(63.623047 0)"/>
       <use xlink:href="#DejaVuSans-30" transform="translate(127.246094 0)"/>
      </g>
     </g>
    </g>
    <g id="text_30">
     <!-- Number of Citations -->
     <g transform="translate(21.470937 349.618437) rotate(-90) scale(0.14 -0.14)">
      <defs>
       <path id="DejaVuSans-4e" d="M 628 4666 
L 1478 4666 
L 3547 763 
L 3547 4666 
L 4159 4666 
L 4159 0 
L 3309 0 
L 1241 3903 
L 1241 0 
L 628 0 
L 628 4666 
z
" transform="scale(0.015625)"/>
       <path id="DejaVuSans-75" d="M 544 1381 
L 544 3500 
L 1119 3500 
L 1119 1403 
Q 1119 906 1312 657 
Q 1506 409 1894 409 
Q 2359 409 2629 706 
Q 2900 1003 2900 1516 
L 2900 3500 
L 3475 3500 
L 3475 0 
L 2900 0 
L 2900 538 
Q 2691 219 2414 64 
Q 2138 -91 1772 -91 
Q 1169 -91 856 284 
Q 544 659 544 1381 
z
M 1991 3584 
L 1991 3584 
z
" transform="scale(0.015625)"/>
       <path id="DejaVuSans-6d" d="M 3328 2828 
Q 3544 3216 3844 3400 
Q 4144 3584 4550 3584 
Q 5097 3584 5394 3201 
Q 5691 2819 5691 2113 
L 5691 0 
L 5113 0 
L 5113 2094 
Q 5113 2597 4934 2840 
Q 4756 3084 4391 3084 
Q 3944 3084 3684 2787 
Q 3425 2491 3425 1978 
L 3425 0 
L 2847 0 
L 2847 2094 
Q 2847 2600 2669 2842 
Q 2491 3084 2119 3084 
Q 1678 3084 1418 2786 
Q 1159 2488 1159 1978 
L 1159 0 
L 581 0 
L 581 3500 
L 1159 3500 
L 1159 2956 
Q 1356 3278 1631 3431 
Q 1906 3584 2284 3584 
Q 2666 3584 2933 3390 
Q 3200 3197 3328 2828 
z
" transform="scale(0.015625)"/>
       <path id="DejaVuSans-62" d="M 3116 1747 
Q 3116 2381 2855 2742 
Q 2594 3103 2138 3103 
Q 1681 3103 1420 2742 
Q 1159 2381 1159 1747 
Q 1159 1113 1420 752 
Q 1681 391 2138 391 
Q 2594 391 2855 752 
Q 3116 1113 3116 1747 
z
M 1159 2969 
Q 1341 3281 1617 3432 
Q 1894 3584 2278 3584 
Q 2916 3584 3314 3078 
Q 3713 2572 3713 1747 
Q 3713 922 3314 415 
Q 2916 -91 2278 -91 
Q 1894 -91 1617 61 
Q 1341 213 1159 525 
L 1159 0 
L 581 0 
L 581 4863 
L 1159 4863 
L 1159 2969 
z
" transform="scale(0.015625)"/>
       <path id="DejaVuSans-20" transform="scale(0.015625)"/>
       <path id="DejaVuSans-6f" d="M 1959 3097 
Q 1497 3097 1228 2736 
Q 959 2375 959 1747 
Q 959 1119 1226 758 
Q 1494 397 1959 397 
Q 2419 397 2687 759 
Q 2956 1122 2956 1747 
Q 2956 2369 2687 2733 
Q 2419 3097 1959 3097 
z
M 1959 3584 
Q 2709 3584 3137 3096 
Q 3566 2609 3566 1747 
Q 3566 888 3137 398 
Q 2709 -91 1959 -91 
Q 1206 -91 779 398 
Q 353 888 353 1747 
Q 353 2609 779 3096 
Q 1206 3584 1959 3584 
z
" transform="scale(0.015625)"/>
       <path id="DejaVuSans-66" d="M 2375 4863 
L 2375 4384 
L 1825 4384 
Q 1516 4384 1395 4259 
Q 1275 4134 1275 3809 
L 1275 3500 
L 2222 3500 
L 2222 3053 
L 1275 3053 
L 1275 0 
L 697 0 
L 697 3053 
L 147 3053 
L 147 3500 
L 697 3500 
L 697 3744 
Q 697 4328 969 4595 
Q 1241 4863 1831 4863 
L 2375 4863 
z
" transform="scale(0.015625)"/>
       <path id="DejaVuSans-43" d="M 4122 4306 
L 4122 3641 
Q 3803 3938 3442 4084 
Q 3081 4231 2675 4231 
Q 1875 4231 1450 3742 
Q 1025 3253 1025 2328 
Q 1025 1406 1450 917 
Q 1875 428 2675 428 
Q 3081 428 3442 575 
Q 3803 722 4122 1019 
L 4122 359 
Q 3791 134 3420 21 
Q 3050 -91 2638 -91 
Q 1578 -91 968 557 
Q 359 1206 359 2328 
Q 359 3453 968 4101 
Q 1578 4750 2638 4750 
Q 3056 4750 3426 4639 
Q 3797 4528 4122 4306 
z
" transform="scale(0.015625)"/>
       <path id="DejaVuSans-69" d="M 603 3500 
L 1178 3500 
L 1178 0 
L 603 0 
L 603 3500 
z
M 603 4863 
L 1178 4863 
L 1178 4134 
L 603 4134 
L 603 4863 
z
" transform="scale(0.015625)"/>
       <path id="DejaVuSans-74" d="M 1172 4494 
L 1172 3500 
L 2356 3500 
L 2356 3053 
L 1172 3053 
L 1172 1153 
Q 1172 725 1289 603 
Q 1406 481 1766 481 
L 2356 481 
L 2356 0 
L 1766 0 
Q 1100 0 847 248 
Q 594 497 594 1153 
L 594 3053 
L 172 3053 
L 172 3500 
L 594 3500 
L 594 4494 
L 1172 4494 
z
" transform="scale(0.015625)"/>
       <path id="DejaVuSans-6e" d="M 3513 2113 
L 3513 0 
L 2938 0 
L 2938 2094 
Q 2938 2591 2744 2837 
Q 2550 3084 2163 3084 
Q 1697 3084 1428 2787 
Q 1159 2491 1159 1978 
L 1159 0 
L 581 0 
L 581 3500 
L 1159 3500 
L 1159 2956 
Q 1366 3272 1645 3428 
Q 1925 3584 2291 3584 
Q 2894 3584 3203 3211 
Q 3513 2838 3513 2113 
z
" transform="scale(0.015625)"/>
       <path id="DejaVuSans-73" d="M 2834 3397 
L 2834 2853 
Q 2591 2978 2328 3040 
Q 2066 3103 1784 3103 
Q 1356 3103 1142 2972 
Q 928 2841 928 2578 
Q 928 2378 1081 2264 
Q 1234 2150 1697 2047 
L 1894 2003 
Q 2506 1872 2764 1633 
Q 3022 1394 3022 966 
Q 3022 478 2636 193 
Q 2250 -91 1575 -91 
Q 1294 -91 989 -36 
Q 684 19 347 128 
L 347 722 
Q 666 556 975 473 
Q 1284 391 1588 391 
Q 1994 391 2212 530 
Q 2431 669 2431 922 
Q 2431 1156 2273 1281 
Q 2116 1406 1581 1522 
L 1381 1569 
Q 847 1681 609 1914 
Q 372 2147 372 2553 
Q 372 3047 722 3315 
Q 1072 3584 1716 3584 
Q 2034 3584 2315 3537 
Q 2597 3491 2834 3397 
z
" transform="scale(0.015625)"/>
      </defs>
      <use xlink:href="#DejaVuSans-4e"/>
      <use xlink:href="#DejaVuSans-75" transform="translate(74.804688 0)"/>
      <use xlink:href="#DejaVuSans-6d" transform="translate(138.183594 0)"/>
      <use xlink:href="#DejaVuSans-62" transform="translate(235.595703 0)"/>
      <use xlink:href="#DejaVuSans-65" transform="translate(299.072266 0)"/>
      <use xlink:href="#DejaVuSans-72" transform="translate(360.595703 0)"/>
      <use xlink:href="#DejaVuSans-20" transform="translate(401.708984 0)"/>
      <use xlink:href="#DejaVuSans-6f" transform="translate(433.496094 0)"/>
      <use xlink:href="#DejaVuSans-66" transform="translate(494.677734 0)"/>
      <use xlink:href="#DejaVuSans-20" transform="translate(529.882812 0)"/>
      <use xlink:href="#DejaVuSans-43" transform="translate(561.669922 0)"/>
      <use xlink:href="#DejaVuSans-69" transform="translate(631.494141 0)"/>
      <use xlink:href="#DejaVuSans-74" transform="translate(659.277344 0)"/>
      <use xlink:href="#DejaVuSans-61" transform="translate(698.486328 0)"/>
      <use xlink:href="#DejaVuSans-74" transform="translate(759.765625 0)"/>
      <use xlink:href="#DejaVuSans-69" transform="translate(798.974609 0)"/>
      <use xlink:href="#DejaVuSans-6f" transform="translate(826.757812 0)"/>
      <use xlink:href="#DejaVuSans-6e" transform="translate(887.939453 0)"/>
      <use xlink:href="#DejaVuSans-73" transform="translate(951.318359 0)"/>
     </g>
    </g>
   </g>
   <g id="line2d_57">
    <path d="M 92.234091 507.616364 
L 131.985766 507.616364 
L 171.73744 507.616364 
L 211.489115 485.114187 
L 251.240789 465.826607 
L 290.992464 417.607657 
L 330.744139 285.809193 
L 370.495813 240.80484 
L 410.247488 86.5042 
L 449.999163 51.143636 
L 489.750837 170.083713 
" clip-path="url(#p86b61d3a71)" style="fill: none; stroke: #1f77b4; stroke-width: 2; stroke-linecap: square"/>
    <defs>
     <path id="ma6e6a8d153" d="M 0 3 
C 0.795609 3 1.55874 2.683901 2.12132 2.12132 
C 2.683901 1.55874 3 0.795609 3 0 
C 3 -0.795609 2.683901 -1.55874 2.12132 -2.12132 
C 1.55874 -2.683901 0.795609 -3 0 -3 
C -0.795609 -3 -1.55874 -2.683901 -2.12132 -2.12132 
C -2.683901 -1.55874 -3 -0.795609 -3 0 
C -3 0.795609 -2.683901 1.55874 -2.12132 2.12132 
C -1.55874 2.683901 -0.795609 3 0 3 
z
" style="stroke: #1f77b4"/>
    </defs>
    <g clip-path="url(#p86b61d3a71)">
     <use xlink:href="#ma6e6a8d153" x="92.234091" y="507.616364" style="fill: #1f77b4; stroke: #1f77b4"/>
     <use xlink:href="#ma6e6a8d153" x="131.985766" y="507.616364" style="fill: #1f77b4; stroke: #1f77b4"/>
     <use xlink:href="#ma6e6a8d153" x="171.73744" y="507.616364" style="fill: #1f77b4; stroke: #1f77b4"/>
     <use xlink:href="#ma6e6a8d153" x="211.489115" y="485.114187" style="fill: #1f77b4; stroke: #1f77b4"/>
     <use xlink:href="#ma6e6a8d153" x="251.240789" y="465.826607" style="fill: #1f77b4; stroke: #1f77b4"/>
     <use xlink:href="#ma6e6a8d153" x="290.992464" y="417.607657" style="fill: #1f77b4; stroke: #1f77b4"/>
     <use xlink:href="#ma6e6a8d153" x="330.744139" y="285.809193" style="fill: #1f77b4; stroke: #1f77b4"/>
     <use xlink:href="#ma6e6a8d153" x="370.495813" y="240.80484" style="fill: #1f77b4; stroke: #1f77b4"/>
     <use xlink:href="#ma6e6a8d153" x="410.247488" y="86.5042" style="fill: #1f77b4; stroke: #1f77b4"/>
     <use xlink:href="#ma6e6a8d153" x="449.999163" y="51.143636" style="fill: #1f77b4; stroke: #1f77b4"/>
     <use xlink:href="#ma6e6a8d153" x="489.750837" y="170.083713" style="fill: #1f77b4; stroke: #1f77b4"/>
    </g>
   </g>
   <g id="line2d_58">
    <path d="M 171.73744 507.616364 
L 211.489115 452.96822 
L 251.240789 260.09242 
L 290.992464 317.95516 
L 330.744139 269.73621 
L 370.495813 240.80484 
L 410.247488 266.521613 
L 449.999163 272.950807 
L 489.750837 350.101127 
" clip-path="url(#p86b61d3a71)" style="fill: none; stroke: #ff7f0e; stroke-width: 2; stroke-linecap: square"/>
    <defs>
     <path id="me535fe4759" d="M 0 3 
C 0.795609 3 1.55874 2.683901 2.12132 2.12132 
C 2.683901 1.55874 3 0.795609 3 0 
C 3 -0.795609 2.683901 -1.55874 2.12132 -2.12132 
C 1.55874 -2.683901 0.795609 -3 0 -3 
C -0.795609 -3 -1.55874 -2.683901 -2.12132 -2.12132 
C -2.683901 -1.55874 -3 -0.795609 -3 0 
C -3 0.795609 -2.683901 1.55874 -2.12132 2.12132 
C -1.55874 2.683901 -0.795609 3 0 3 
z
" style="stroke: #ff7f0e"/>
    </defs>
    <g clip-path="url(#p86b61d3a71)">
     <use xlink:href="#me535fe4759" x="171.73744" y="507.616364" style="fill: #ff7f0e; stroke: #ff7f0e"/>
     <use xlink:href="#me535fe4759" x="211.489115" y="452.96822" style="fill: #ff7f0e; stroke: #ff7f0e"/>
     <use xlink:href="#me535fe4759" x="251.240789" y="260.09242" style="fill: #ff7f0e; stroke: #ff7f0e"/>
     <use xlink:href="#me535fe4759" x="290.992464" y="317.95516" style="fill: #ff7f0e; stroke: #ff7f0e"/>
     <use xlink:href="#me535fe4759" x="330.744139" y="269.73621" style="fill: #ff7f0e; stroke: #ff7f0e"/>
     <use xlink:href="#me535fe4759" x="370.495813" y="240.80484" style="fill: #ff7f0e; stroke: #ff7f0e"/>
     <use xlink:href="#me535fe4759" x="410.247488" y="266.521613" style="fill: #ff7f0e; stroke: #ff7f0e"/>
     <use xlink:href="#me535fe4759" x="449.999163" y="272.950807" style="fill: #ff7f0e; stroke: #ff7f0e"/>
     <use xlink:href="#me535fe4759" x="489.750837" y="350.101127" style="fill: #ff7f0e; stroke: #ff7f0e"/>
    </g>
   </g>
   <g id="line2d_59">
    <path d="M 529.502512 504.401767 
L 569.254187 485.114187 
L 609.005861 469.041204 
L 648.757536 456.182817 
L 688.509211 443.32443 
L 728.260885 469.041204 
L 768.01256 472.2558 
L 807.764234 465.826607 
L 131.985766 462.61201 
L 171.73744 469.041204 
L 211.489115 459.397414 
L 251.240789 465.826607 
L 290.992464 456.182817 
L 330.744139 475.470397 
L 370.495813 488.328784 
L 410.247488 491.54338 
L 449.999163 497.972574 
L 489.750837 497.972574 
" clip-path="url(#p86b61d3a71)" style="fill: none; stroke: #2ca02c; stroke-width: 2; stroke-linecap: square"/>
    <defs>
     <path id="md3b5e205c5" d="M 0 3 
C 0.795609 3 1.55874 2.683901 2.12132 2.12132 
C 2.683901 1.55874 3 0.795609 3 0 
C 3 -0.795609 2.683901 -1.55874 2.12132 -2.12132 
C 1.55874 -2.683901 0.795609 -3 0 -3 
C -0.795609 -3 -1.55874 -2.683901 -2.12132 -2.12132 
C -2.683901 -1.55874 -3 -0.795609 -3 0 
C -3 0.795609 -2.683901 1.55874 -2.12132 2.12132 
C -1.55874 2.683901 -0.795609 3 0 3 
z
" style="stroke: #2ca02c"/>
    </defs>
    <g clip-path="url(#p86b61d3a71)">
     <use xlink:href="#md3b5e205c5" x="529.502512" y="504.401767" style="fill: #2ca02c; stroke: #2ca02c"/>
     <use xlink:href="#md3b5e205c5" x="569.254187" y="485.114187" style="fill: #2ca02c; stroke: #2ca02c"/>
     <use xlink:href="#md3b5e205c5" x="609.005861" y="469.041204" style="fill: #2ca02c; stroke: #2ca02c"/>
     <use xlink:href="#md3b5e205c5" x="648.757536" y="456.182817" style="fill: #2ca02c; stroke: #2ca02c"/>
     <use xlink:href="#md3b5e205c5" x="688.509211" y="443.32443" style="fill: #2ca02c; stroke: #2ca02c"/>
     <use xlink:href="#md3b5e205c5" x="728.260885" y="469.041204" style="fill: #2ca02c; stroke: #2ca02c"/>
     <use xlink:href="#md3b5e205c5" x="768.01256" y="472.2558" style="fill: #2ca02c; stroke: #2ca02c"/>
     <use xlink:href="#md3b5e205c5" x="807.764234" y="465.826607" style="fill: #2ca02c; stroke: #2ca02c"/>
     <use xlink:href="#md3b5e205c5" x="131.985766" y="462.61201" style="fill: #2ca02c; stroke: #2ca02c"/>
     <use xlink:href="#md3b5e205c5" x="171.73744" y="469.041204" style="fill: #2ca02c; stroke: #2ca02c"/>
     <use xlink:href="#md3b5e205c5" x="211.489115" y="459.397414" style="fill: #2ca02c; stroke: #2ca02c"/>
     <use xlink:href="#md3b5e205c5" x="251.240789" y="465.826607" style="fill: #2ca02c; stroke: #2ca02c"/>
     <use xlink:href="#md3b5e205c5" x="290.992464" y="456.182817" style="fill: #2ca02c; stroke: #2ca02c"/>
     <use xlink:href="#md3b5e205c5" x="330.744139" y="475.470397" style="fill: #2ca02c; stroke: #2ca02c"/>
     <use xlink:href="#md3b5e205c5" x="370.495813" y="488.328784" style="fill: #2ca02c; stroke: #2ca02c"/>
     <use xlink:href="#md3b5e205c5" x="410.247488" y="491.54338" style="fill: #2ca02c; stroke: #2ca02c"/>
     <use xlink:href="#md3b5e205c5" x="449.999163" y="497.972574" style="fill: #2ca02c; stroke: #2ca02c"/>
     <use xlink:href="#md3b5e205c5" x="489.750837" y="497.972574" style="fill: #2ca02c; stroke: #2ca02c"/>
    </g>
   </g>
   <g id="line2d_60">
    <path d="M 211.489115 488.328784 
L 251.240789 449.753624 
L 290.992464 446.539027 
L 330.744139 414.39306 
L 370.495813 411.178464 
L 410.247488 427.251447 
L 449.999163 414.39306 
L 489.750837 491.54338 
" clip-path="url(#p86b61d3a71)" style="fill: none; stroke: #d62728; stroke-width: 2; stroke-linecap: square"/>
    <defs>
     <path id="mc61daa43cd" d="M 0 3 
C 0.795609 3 1.55874 2.683901 2.12132 2.12132 
C 2.683901 1.55874 3 0.795609 3 0 
C 3 -0.795609 2.683901 -1.55874 2.12132 -2.12132 
C 1.55874 -2.683901 0.795609 -3 0 -3 
C -0.795609 -3 -1.55874 -2.683901 -2.12132 -2.12132 
C -2.683901 -1.55874 -3 -0.795609 -3 0 
C -3 0.795609 -2.683901 1.55874 -2.12132 2.12132 
C -1.55874 2.683901 -0.795609 3 0 3 
z
" style="stroke: #d62728"/>
    </defs>
    <g clip-path="url(#p86b61d3a71)">
     <use xlink:href="#mc61daa43cd" x="211.489115" y="488.328784" style="fill: #d62728; stroke: #d62728"/>
     <use xlink:href="#mc61daa43cd" x="251.240789" y="449.753624" style="fill: #d62728; stroke: #d62728"/>
     <use xlink:href="#mc61daa43cd" x="290.992464" y="446.539027" style="fill: #d62728; stroke: #d62728"/>
     <use xlink:href="#mc61daa43cd" x="330.744139" y="414.39306" style="fill: #d62728; stroke: #d62728"/>
     <use xlink:href="#mc61daa43cd" x="370.495813" y="411.178464" style="fill: #d62728; stroke: #d62728"/>
     <use xlink:href="#mc61daa43cd" x="410.247488" y="427.251447" style="fill: #d62728; stroke: #d62728"/>
     <use xlink:href="#mc61daa43cd" x="449.999163" y="414.39306" style="fill: #d62728; stroke: #d62728"/>
     <use xlink:href="#mc61daa43cd" x="489.750837" y="491.54338" style="fill: #d62728; stroke: #d62728"/>
    </g>
   </g>
   <g id="line2d_61">
    <path d="M 847.515909 507.616364 
L 171.73744 475.470397 
L 211.489115 472.2558 
L 251.240789 481.89959 
L 290.992464 456.182817 
L 330.744139 456.182817 
L 370.495813 449.753624 
L 410.247488 472.2558 
L 449.999163 465.826607 
L 489.750837 491.54338 
" clip-path="url(#p86b61d3a71)" style="fill: none; stroke: #9467bd; stroke-width: 2; stroke-linecap: square"/>
    <defs>
     <path id="mfd4aa3aa52" d="M 0 3 
C 0.795609 3 1.55874 2.683901 2.12132 2.12132 
C 2.683901 1.55874 3 0.795609 3 0 
C 3 -0.795609 2.683901 -1.55874 2.12132 -2.12132 
C 1.55874 -2.683901 0.795609 -3 0 -3 
C -0.795609 -3 -1.55874 -2.683901 -2.12132 -2.12132 
C -2.683901 -1.55874 -3 -0.795609 -3 0 
C -3 0.795609 -2.683901 1.55874 -2.12132 2.12132 
C -1.55874 2.683901 -0.795609 3 0 3 
z
" style="stroke: #9467bd"/>
    </defs>
    <g clip-path="url(#p86b61d3a71)">
     <use xlink:href="#mfd4aa3aa52" x="847.515909" y="507.616364" style="fill: #9467bd; stroke: #9467bd"/>
     <use xlink:href="#mfd4aa3aa52" x="171.73744" y="475.470397" style="fill: #9467bd; stroke: #9467bd"/>
     <use xlink:href="#mfd4aa3aa52" x="211.489115" y="472.2558" style="fill: #9467bd; stroke: #9467bd"/>
     <use xlink:href="#mfd4aa3aa52" x="251.240789" y="481.89959" style="fill: #9467bd; stroke: #9467bd"/>
     <use xlink:href="#mfd4aa3aa52" x="290.992464" y="456.182817" style="fill: #9467bd; stroke: #9467bd"/>
     <use xlink:href="#mfd4aa3aa52" x="330.744139" y="456.182817" style="fill: #9467bd; stroke: #9467bd"/>
     <use xlink:href="#mfd4aa3aa52" x="370.495813" y="449.753624" style="fill: #9467bd; stroke: #9467bd"/>
     <use xlink:href="#mfd4aa3aa52" x="410.247488" y="472.2558" style="fill: #9467bd; stroke: #9467bd"/>
     <use xlink:href="#mfd4aa3aa52" x="449.999163" y="465.826607" style="fill: #9467bd; stroke: #9467bd"/>
     <use xlink:href="#mfd4aa3aa52" x="489.750837" y="491.54338" style="fill: #9467bd; stroke: #9467bd"/>
    </g>
   </g>
   <g id="line2d_62">
    <path d="M 330.744139 491.54338 
L 370.495813 462.61201 
L 410.247488 436.895237 
L 449.999163 424.03685 
L 489.750837 446.539027 
" clip-path="url(#p86b61d3a71)" style="fill: none; stroke: #8c564b; stroke-width: 2; stroke-linecap: square"/>
    <defs>
     <path id="mf08a2fc945" d="M 0 3 
C 0.795609 3 1.55874 2.683901 2.12132 2.12132 
C 2.683901 1.55874 3 0.795609 3 0 
C 3 -0.795609 2.683901 -1.55874 2.12132 -2.12132 
C 1.55874 -2.683901 0.795609 -3 0 -3 
C -0.795609 -3 -1.55874 -2.683901 -2.12132 -2.12132 
C -2.683901 -1.55874 -3 -0.795609 -3 0 
C -3 0.795609 -2.683901 1.55874 -2.12132 2.12132 
C -1.55874 2.683901 -0.795609 3 0 3 
z
" style="stroke: #8c564b"/>
    </defs>
    <g clip-path="url(#p86b61d3a71)">
     <use xlink:href="#mf08a2fc945" x="330.744139" y="491.54338" style="fill: #8c564b; stroke: #8c564b"/>
     <use xlink:href="#mf08a2fc945" x="370.495813" y="462.61201" style="fill: #8c564b; stroke: #8c564b"/>
     <use xlink:href="#mf08a2fc945" x="410.247488" y="436.895237" style="fill: #8c564b; stroke: #8c564b"/>
     <use xlink:href="#mf08a2fc945" x="449.999163" y="424.03685" style="fill: #8c564b; stroke: #8c564b"/>
     <use xlink:href="#mf08a2fc945" x="489.750837" y="446.539027" style="fill: #8c564b; stroke: #8c564b"/>
    </g>
   </g>
   <g id="line2d_63">
    <path d="M 251.240789 507.616364 
L 290.992464 507.616364 
L 330.744139 446.539027 
L 370.495813 446.539027 
L 410.247488 459.397414 
L 449.999163 446.539027 
L 489.750837 475.470397 
" clip-path="url(#p86b61d3a71)" style="fill: none; stroke: #e377c2; stroke-width: 2; stroke-linecap: square"/>
    <defs>
     <path id="m3369563121" d="M 0 3 
C 0.795609 3 1.55874 2.683901 2.12132 2.12132 
C 2.683901 1.55874 3 0.795609 3 0 
C 3 -0.795609 2.683901 -1.55874 2.12132 -2.12132 
C 1.55874 -2.683901 0.795609 -3 0 -3 
C -0.795609 -3 -1.55874 -2.683901 -2.12132 -2.12132 
C -2.683901 -1.55874 -3 -0.795609 -3 0 
C -3 0.795609 -2.683901 1.55874 -2.12132 2.12132 
C -1.55874 2.683901 -0.795609 3 0 3 
z
" style="stroke: #e377c2"/>
    </defs>
    <g clip-path="url(#p86b61d3a71)">
     <use xlink:href="#m3369563121" x="251.240789" y="507.616364" style="fill: #e377c2; stroke: #e377c2"/>
     <use xlink:href="#m3369563121" x="290.992464" y="507.616364" style="fill: #e377c2; stroke: #e377c2"/>
     <use xlink:href="#m3369563121" x="330.744139" y="446.539027" style="fill: #e377c2; stroke: #e377c2"/>
     <use xlink:href="#m3369563121" x="370.495813" y="446.539027" style="fill: #e377c2; stroke: #e377c2"/>
     <use xlink:href="#m3369563121" x="410.247488" y="459.397414" style="fill: #e377c2; stroke: #e377c2"/>
     <use xlink:href="#m3369563121" x="449.999163" y="446.539027" style="fill: #e377c2; stroke: #e377c2"/>
     <use xlink:href="#m3369563121" x="489.750837" y="475.470397" style="fill: #e377c2; stroke: #e377c2"/>
    </g>
   </g>
   <g id="line2d_64">
    <path d="M 290.992464 507.616364 
L 330.744139 497.972574 
L 370.495813 472.2558 
L 410.247488 491.54338 
L 449.999163 481.89959 
L 489.750837 491.54338 
" clip-path="url(#p86b61d3a71)" style="fill: none; stroke: #7f7f7f; stroke-width: 2; stroke-linecap: square"/>
    <defs>
     <path id="m0de4e6241e" d="M 0 3 
C 0.795609 3 1.55874 2.683901 2.12132 2.12132 
C 2.683901 1.55874 3 0.795609 3 0 
C 3 -0.795609 2.683901 -1.55874 2.12132 -2.12132 
C 1.55874 -2.683901 0.795609 -3 0 -3 
C -0.795609 -3 -1.55874 -2.683901 -2.12132 -2.12132 
C -2.683901 -1.55874 -3 -0.795609 -3 0 
C -3 0.795609 -2.683901 1.55874 -2.12132 2.12132 
C -1.55874 2.683901 -0.795609 3 0 3 
z
" style="stroke: #7f7f7f"/>
    </defs>
    <g clip-path="url(#p86b61d3a71)">
     <use xlink:href="#m0de4e6241e" x="290.992464" y="507.616364" style="fill: #7f7f7f; stroke: #7f7f7f"/>
     <use xlink:href="#m0de4e6241e" x="330.744139" y="497.972574" style="fill: #7f7f7f; stroke: #7f7f7f"/>
     <use xlink:href="#m0de4e6241e" x="370.495813" y="472.2558" style="fill: #7f7f7f; stroke: #7f7f7f"/>
     <use xlink:href="#m0de4e6241e" x="410.247488" y="491.54338" style="fill: #7f7f7f; stroke: #7f7f7f"/>
     <use xlink:href="#m0de4e6241e" x="449.999163" y="481.89959" style="fill: #7f7f7f; stroke: #7f7f7f"/>
     <use xlink:href="#m0de4e6241e" x="489.750837" y="491.54338" style="fill: #7f7f7f; stroke: #7f7f7f"/>
    </g>
   </g>
   <g id="line2d_65">
    <path d="M 768.01256 507.616364 
L 807.764234 504.401767 
L 131.985766 504.401767 
L 171.73744 491.54338 
L 211.489115 485.114187 
L 251.240789 485.114187 
L 290.992464 494.757977 
L 330.744139 504.401767 
L 370.495813 507.616364 
L 410.247488 507.616364 
L 449.999163 507.616364 
" clip-path="url(#p86b61d3a71)" style="fill: none; stroke: #bcbd22; stroke-width: 2; stroke-linecap: square"/>
    <defs>
     <path id="mde43c0e358" d="M 0 3 
C 0.795609 3 1.55874 2.683901 2.12132 2.12132 
C 2.683901 1.55874 3 0.795609 3 0 
C 3 -0.795609 2.683901 -1.55874 2.12132 -2.12132 
C 1.55874 -2.683901 0.795609 -3 0 -3 
C -0.795609 -3 -1.55874 -2.683901 -2.12132 -2.12132 
C -2.683901 -1.55874 -3 -0.795609 -3 0 
C -3 0.795609 -2.683901 1.55874 -2.12132 2.12132 
C -1.55874 2.683901 -0.795609 3 0 3 
z
" style="stroke: #bcbd22"/>
    </defs>
    <g clip-path="url(#p86b61d3a71)">
     <use xlink:href="#mde43c0e358" x="768.01256" y="507.616364" style="fill: #bcbd22; stroke: #bcbd22"/>
     <use xlink:href="#mde43c0e358" x="807.764234" y="504.401767" style="fill: #bcbd22; stroke: #bcbd22"/>
     <use xlink:href="#mde43c0e358" x="131.985766" y="504.401767" style="fill: #bcbd22; stroke: #bcbd22"/>
     <use xlink:href="#mde43c0e358" x="171.73744" y="491.54338" style="fill: #bcbd22; stroke: #bcbd22"/>
     <use xlink:href="#mde43c0e358" x="211.489115" y="485.114187" style="fill: #bcbd22; stroke: #bcbd22"/>
     <use xlink:href="#mde43c0e358" x="251.240789" y="485.114187" style="fill: #bcbd22; stroke: #bcbd22"/>
     <use xlink:href="#mde43c0e358" x="290.992464" y="494.757977" style="fill: #bcbd22; stroke: #bcbd22"/>
     <use xlink:href="#mde43c0e358" x="330.744139" y="504.401767" style="fill: #bcbd22; stroke: #bcbd22"/>
     <use xlink:href="#mde43c0e358" x="370.495813" y="507.616364" style="fill: #bcbd22; stroke: #bcbd22"/>
     <use xlink:href="#mde43c0e358" x="410.247488" y="507.616364" style="fill: #bcbd22; stroke: #bcbd22"/>
     <use xlink:href="#mde43c0e358" x="449.999163" y="507.616364" style="fill: #bcbd22; stroke: #bcbd22"/>
    </g>
   </g>
   <g id="line2d_66">
    <path d="M 251.240789 507.616364 
L 290.992464 472.2558 
L 330.744139 488.328784 
L 370.495813 494.757977 
L 410.247488 497.972574 
L 449.999163 504.401767 
L 489.750837 497.972574 
" clip-path="url(#p86b61d3a71)" style="fill: none; stroke: #17becf; stroke-width: 2; stroke-linecap: square"/>
    <defs>
     <path id="m98333c36a3" d="M 0 3 
C 0.795609 3 1.55874 2.683901 2.12132 2.12132 
C 2.683901 1.55874 3 0.795609 3 0 
C 3 -0.795609 2.683901 -1.55874 2.12132 -2.12132 
C 1.55874 -2.683901 0.795609 -3 0 -3 
C -0.795609 -3 -1.55874 -2.683901 -2.12132 -2.12132 
C -2.683901 -1.55874 -3 -0.795609 -3 0 
C -3 0.795609 -2.683901 1.55874 -2.12132 2.12132 
C -1.55874 2.683901 -0.795609 3 0 3 
z
" style="stroke: #17becf"/>
    </defs>
    <g clip-path="url(#p86b61d3a71)">
     <use xlink:href="#m98333c36a3" x="251.240789" y="507.616364" style="fill: #17becf; stroke: #17becf"/>
     <use xlink:href="#m98333c36a3" x="290.992464" y="472.2558" style="fill: #17becf; stroke: #17becf"/>
     <use xlink:href="#m98333c36a3" x="330.744139" y="488.328784" style="fill: #17becf; stroke: #17becf"/>
     <use xlink:href="#m98333c36a3" x="370.495813" y="494.757977" style="fill: #17becf; stroke: #17becf"/>
     <use xlink:href="#m98333c36a3" x="410.247488" y="497.972574" style="fill: #17becf; stroke: #17becf"/>
     <use xlink:href="#m98333c36a3" x="449.999163" y="504.401767" style="fill: #17becf; stroke: #17becf"/>
     <use xlink:href="#m98333c36a3" x="489.750837" y="497.972574" style="fill: #17becf; stroke: #17becf"/>
    </g>
   </g>
   <g id="patch_3">
    <path d="M 54.47 530.44 
L 54.47 28.32 
" style="fill: none; stroke: #000000; stroke-width: 0.8; stroke-linejoin: miter; stroke-linecap: square"/>
   </g>
   <g id="patch_4">
    <path d="M 885.28 530.44 
L 885.28 28.32 
" style="fill: none; stroke: #000000; stroke-width: 0.8; stroke-linejoin: miter; stroke-linecap: square"/>
   </g>
   <g id="patch_5">
    <path d="M 54.47 530.44 
L 885.28 530.44 
" style="fill: none; stroke: #000000; stroke-width: 0.8; stroke-linejoin: miter; stroke-linecap: square"/>
   </g>
   <g id="patch_6">
    <path d="M 54.47 28.32 
L 885.28 28.32 
" style="fill: none; stroke: #000000; stroke-width: 0.8; stroke-linejoin: miter; stroke-linecap: square"/>
   </g>
   <g id="text_31">
    <!-- Citation Trends for Top 10 Most-Cited Tools -->
    <g transform="translate(300.075 22.32) scale(0.16 -0.16)">
     <defs>
      <path id="DejaVuSans-54" d="M -19 4666 
L 3928 4666 
L 3928 4134 
L 2272 4134 
L 2272 0 
L 1638 0 
L 1638 4134 
L -19 4134 
L -19 4666 
z
" transform="scale(0.015625)"/>
      <path id="DejaVuSans-64" d="M 2906 2969 
L 2906 4863 
L 3481 4863 
L 3481 0 
L 2906 0 
L 2906 525 
Q 2725 213 2448 61 
Q 2172 -91 1784 -91 
Q 1150 -91 751 415 
Q 353 922 353 1747 
Q 353 2572 751 3078 
Q 1150 3584 1784 3584 
Q 2172 3584 2448 3432 
Q 2725 3281 2906 2969 
z
M 947 1747 
Q 947 1113 1208 752 
Q 1469 391 1925 391 
Q 2381 391 2643 752 
Q 2906 1113 2906 1747 
Q 2906 2381 2643 2742 
Q 2381 3103 1925 3103 
Q 1469 3103 1208 2742 
Q 947 2381 947 1747 
z
" transform="scale(0.015625)"/>
      <path id="DejaVuSans-70" d="M 1159 525 
L 1159 -1331 
L 581 -1331 
L 581 3500 
L 1159 3500 
L 1159 2969 
Q 1341 3281 1617 3432 
Q 1894 3584 2278 3584 
Q 2916 3584 3314 3078 
Q 3713 2572 3713 1747 
Q 3713 922 3314 415 
Q 2916 -91 2278 -91 
Q 1894 -91 1617 61 
Q 1341 213 1159 525 
z
M 3116 1747 
Q 3116 2381 2855 2742 
Q 2594 3103 2138 3103 
Q 1681 3103 1420 2742 
Q 1159 2381 1159 1747 
Q 1159 1113 1420 752 
Q 1681 391 2138 391 
Q 2594 391 2855 752 
Q 3116 1113 3116 1747 
z
" transform="scale(0.015625)"/>
      <path id="DejaVuSans-4d" d="M 628 4666 
L 1569 4666 
L 2759 1491 
L 3956 4666 
L 4897 4666 
L 4897 0 
L 4281 0 
L 4281 4097 
L 3078 897 
L 2444 897 
L 1241 4097 
L 1241 0 
L 628 0 
L 628 4666 
z
" transform="scale(0.015625)"/>
      <path id="DejaVuSans-2d" d="M 313 2009 
L 1997 2009 
L 1997 1497 
L 313 1497 
L 313 2009 
z
" transform="scale(0.015625)"/>
      <path id="DejaVuSans-6c" d="M 603 4863 
L 1178 4863 
L 1178 0 
L 603 0 
L 603 4863 
z
" transform="scale(0.015625)"/>
     </defs>
     <use xlink:href="#DejaVuSans-43"/>
     <use xlink:href="#DejaVuSans-69" transform="translate(69.824219 0)"/>
     <use xlink:href="#DejaVuSans-74" transform="translate(97.607422 0)"/>
     <use xlink:href="#DejaVuSans-61" transform="translate(136.816406 0)"/>
     <use xlink:href="#DejaVuSans-74" transform="translate(198.095703 0)"/>
     <use xlink:href="#DejaVuSans-69" transform="translate(237.304688 0)"/>
     <use xlink:href="#DejaVuSans-6f" transform="translate(265.087891 0)"/>
     <use xlink:href="#DejaVuSans-6e" transform="translate(326.269531 0)"/>
     <use xlink:href="#DejaVuSans-20" transform="translate(389.648438 0)"/>
     <use xlink:href="#DejaVuSans-54" transform="translate(421.435547 0)"/>
     <use xlink:href="#DejaVuSans-72" transform="translate(467.769531 0)"/>
     <use xlink:href="#DejaVuSans-65" transform="translate(506.632812 0)"/>
     <use xlink:href="#DejaVuSans-6e" transform="translate(568.15625 0)"/>
     <use xlink:href="#DejaVuSans-64" transform="translate(631.535156 0)"/>
     <use xlink:href="#DejaVuSans-73" transform="translate(695.011719 0)"/>
     <use xlink:href="#DejaVuSans-20" transform="translate(747.111328 0)"/>
     <use xlink:href="#DejaVuSans-66" transform="translate(778.898438 0)"/>
     <use xlink:href="#DejaVuSans-6f" transform="translate(814.103516 0)"/>
     <use xlink:href="#DejaVuSans-72" transform="translate(875.285156 0)"/>
     <use xlink:href="#DejaVuSans-20" transform="translate(916.398438 0)"/>
     <use xlink:href="#DejaVuSans-54" transform="translate(948.185547 0)"/>
     <use xlink:href="#DejaVuSans-6f" transform="translate(992.269531 0)"/>
     <use xlink:href="#DejaVuSans-70" transform="translate(1053.451172 0)"/>
     <use xlink:href="#DejaVuSans-20" transform="translate(1116.927734 0)"/>
     <use xlink:href="#DejaVuSans-31" transform="translate(1148.714844 0)"/>
     <use xlink:href="#DejaVuSans-30" transform="translate(1212.337891 0)"/>
     <use xlink:href="#DejaVuSans-20" transform="translate(1275.960938 0)"/>
     <use xlink:href="#DejaVuSans-4d" transform="translate(1307.748047 0)"/>
     <use xlink:href="#DejaVuSans-6f" transform="translate(1394.027344 0)"/>
     <use xlink:href="#DejaVuSans-73" transform="translate(1455.208984 0)"/>
     <use xlink:href="#DejaVuSans-74" transform="translate(1507.308594 0)"/>
     <use xlink:href="#DejaVuSans-2d" transform="translate(1546.517578 0)"/>
     <use xlink:href="#DejaVuSans-43" transform="translate(1582.601562 0)"/>
     <use xlink:href="#DejaVuSans-69" transform="translate(1652.425781 0)"/>
     <use xlink:href="#DejaVuSans-74" transform="translate(1680.208984 0)"/>
     <use xlink:href="#DejaVuSans-65" transform="translate(1719.417969 0)"/>
     <use xlink:href="#DejaVuSans-64" transform="translate(1780.941406 0)"/>
     <use xlink:href="#DejaVuSans-20" transform="translate(1844.417969 0)"/>
     <use xlink:href="#DejaVuSans-54" transform="translate(1876.205078 0)"/>
     <use xlink:href="#DejaVuSans-6f" transform="translate(1920.289062 0)"/>
     <use xlink:href="#DejaVuSans-6f" transform="translate(1981.470703 0)"/>
     <use xlink:href="#DejaVuSans-6c" transform="translate(2042.652344 0)"/>
     <use xlink:href="#DejaVuSans-73" transform="translate(2070.435547 0)"/>
    </g>
   </g>
   <g id="legend_1">
    <g id="patch_7">
     <path d="M 892.28 183.10125 
L 995.0925 183.10125 
Q 997.0925 183.10125 997.0925 181.10125 
L 997.0925 35.32 
Q 997.0925 33.32 995.0925 33.32 
L 892.28 33.32 
Q 890.28 33.32 890.28 35.32 
L 890.28 181.10125 
Q 890.28 183.10125 892.28 183.10125 
z
" style="fill: #ffffff; opacity: 0.8; stroke: #cccccc; stroke-linejoin: miter"/>
    </g>
    <g id="line2d_67">
     <path d="M 894.28 41.418437 
L 904.28 41.418437 
L 914.28 41.418437 
" style="fill: none; stroke: #1f77b4; stroke-width: 2; stroke-linecap: square"/>
     <g>
      <use xlink:href="#ma6e6a8d153" x="904.28" y="41.418437" style="fill: #1f77b4; stroke: #1f77b4"/>
     </g>
    </g>
    <g id="text_32">
     <!-- VIPtree -->
     <g transform="translate(922.28 44.918437) scale(0.1 -0.1)">
      <defs>
       <path id="DejaVuSans-56" d="M 1831 0 
L 50 4666 
L 709 4666 
L 2188 738 
L 3669 4666 
L 4325 4666 
L 2547 0 
L 1831 0 
z
" transform="scale(0.015625)"/>
       <path id="DejaVuSans-49" d="M 628 4666 
L 1259 4666 
L 1259 0 
L 628 0 
L 628 4666 
z
" transform="scale(0.015625)"/>
       <path id="DejaVuSans-50" d="M 1259 4147 
L 1259 2394 
L 2053 2394 
Q 2494 2394 2734 2622 
Q 2975 2850 2975 3272 
Q 2975 3691 2734 3919 
Q 2494 4147 2053 4147 
L 1259 4147 
z
M 628 4666 
L 2053 4666 
Q 2838 4666 3239 4311 
Q 3641 3956 3641 3272 
Q 3641 2581 3239 2228 
Q 2838 1875 2053 1875 
L 1259 1875 
L 1259 0 
L 628 0 
L 628 4666 
z
" transform="scale(0.015625)"/>
      </defs>
      <use xlink:href="#DejaVuSans-56"/>
      <use xlink:href="#DejaVuSans-49" transform="translate(68.408203 0)"/>
      <use xlink:href="#DejaVuSans-50" transform="translate(97.900391 0)"/>
      <use xlink:href="#DejaVuSans-74" transform="translate(158.203125 0)"/>
      <use xlink:href="#DejaVuSans-72" transform="translate(197.412109 0)"/>
      <use xlink:href="#DejaVuSans-65" transform="translate(236.275391 0)"/>
      <use xlink:href="#DejaVuSans-65" transform="translate(297.798828 0)"/>
     </g>
    </g>
    <g id="line2d_68">
     <path d="M 894.28 56.096563 
L 904.28 56.096563 
L 914.28 56.096563 
" style="fill: none; stroke: #ff7f0e; stroke-width: 2; stroke-linecap: square"/>
     <g>
      <use xlink:href="#me535fe4759" x="904.28" y="56.096563" style="fill: #ff7f0e; stroke: #ff7f0e"/>
     </g>
    </g>
    <g id="text_33">
     <!-- PhageTerm -->
     <g transform="translate(922.28 59.596563) scale(0.1 -0.1)">
      <defs>
       <path id="DejaVuSans-68" d="M 3513 2113 
L 3513 0 
L 2938 0 
L 2938 2094 
Q 2938 2591 2744 2837 
Q 2550 3084 2163 3084 
Q 1697 3084 1428 2787 
Q 1159 2491 1159 1978 
L 1159 0 
L 581 0 
L 581 4863 
L 1159 4863 
L 1159 2956 
Q 1366 3272 1645 3428 
Q 1925 3584 2291 3584 
Q 2894 3584 3203 3211 
Q 3513 2838 3513 2113 
z
" transform="scale(0.015625)"/>
       <path id="DejaVuSans-67" d="M 2906 1791 
Q 2906 2416 2648 2759 
Q 2391 3103 1925 3103 
Q 1463 3103 1205 2759 
Q 947 2416 947 1791 
Q 947 1169 1205 825 
Q 1463 481 1925 481 
Q 2391 481 2648 825 
Q 2906 1169 2906 1791 
z
M 3481 434 
Q 3481 -459 3084 -895 
Q 2688 -1331 1869 -1331 
Q 1566 -1331 1297 -1286 
Q 1028 -1241 775 -1147 
L 775 -588 
Q 1028 -725 1275 -790 
Q 1522 -856 1778 -856 
Q 2344 -856 2625 -561 
Q 2906 -266 2906 331 
L 2906 616 
Q 2728 306 2450 153 
Q 2172 0 1784 0 
Q 1141 0 747 490 
Q 353 981 353 1791 
Q 353 2603 747 3093 
Q 1141 3584 1784 3584 
Q 2172 3584 2450 3431 
Q 2728 3278 2906 2969 
L 2906 3500 
L 3481 3500 
L 3481 434 
z
" transform="scale(0.015625)"/>
      </defs>
      <use xlink:href="#DejaVuSans-50"/>
      <use xlink:href="#DejaVuSans-68" transform="translate(60.302734 0)"/>
      <use xlink:href="#DejaVuSans-61" transform="translate(123.681641 0)"/>
      <use xlink:href="#DejaVuSans-67" transform="translate(184.960938 0)"/>
      <use xlink:href="#DejaVuSans-65" transform="translate(248.4375 0)"/>
      <use xlink:href="#DejaVuSans-54" transform="translate(309.960938 0)"/>
      <use xlink:href="#DejaVuSans-65" transform="translate(354.044922 0)"/>
      <use xlink:href="#DejaVuSans-72" transform="translate(415.568359 0)"/>
      <use xlink:href="#DejaVuSans-6d" transform="translate(454.931641 0)"/>
     </g>
    </g>
    <g id="line2d_69">
     <path d="M 894.28 70.774688 
L 904.28 70.774688 
L 914.28 70.774688 
" style="fill: none; stroke: #2ca02c; stroke-width: 2; stroke-linecap: square"/>
     <g>
      <use xlink:href="#md3b5e205c5" x="904.28" y="70.774688" style="fill: #2ca02c; stroke: #2ca02c"/>
     </g>
    </g>
    <g id="text_34">
     <!-- Prophinder -->
     <g transform="translate(922.28 74.274688) scale(0.1 -0.1)">
      <use xlink:href="#DejaVuSans-50"/>
      <use xlink:href="#DejaVuSans-72" transform="translate(58.552734 0)"/>
      <use xlink:href="#DejaVuSans-6f" transform="translate(97.416016 0)"/>
      <use xlink:href="#DejaVuSans-70" transform="translate(158.597656 0)"/>
      <use xlink:href="#DejaVuSans-68" transform="translate(222.074219 0)"/>
      <use xlink:href="#DejaVuSans-69" transform="translate(285.453125 0)"/>
      <use xlink:href="#DejaVuSans-6e" transform="translate(313.236328 0)"/>
      <use xlink:href="#DejaVuSans-64" transform="translate(376.615234 0)"/>
      <use xlink:href="#DejaVuSans-65" transform="translate(440.091797 0)"/>
      <use xlink:href="#DejaVuSans-72" transform="translate(501.615234 0)"/>
     </g>
    </g>
    <g id="line2d_70">
     <path d="M 894.28 85.452812 
L 904.28 85.452812 
L 914.28 85.452812 
" style="fill: none; stroke: #d62728; stroke-width: 2; stroke-linecap: square"/>
     <g>
      <use xlink:href="#mc61daa43cd" x="904.28" y="85.452812" style="fill: #d62728; stroke: #d62728"/>
     </g>
    </g>
    <g id="text_35">
     <!-- PHASTER -->
     <g transform="translate(922.28 88.952812) scale(0.1 -0.1)">
      <defs>
       <path id="DejaVuSans-48" d="M 628 4666 
L 1259 4666 
L 1259 2753 
L 3553 2753 
L 3553 4666 
L 4184 4666 
L 4184 0 
L 3553 0 
L 3553 2222 
L 1259 2222 
L 1259 0 
L 628 0 
L 628 4666 
z
" transform="scale(0.015625)"/>
       <path id="DejaVuSans-41" d="M 2188 4044 
L 1331 1722 
L 3047 1722 
L 2188 4044 
z
M 1831 4666 
L 2547 4666 
L 4325 0 
L 3669 0 
L 3244 1197 
L 1141 1197 
L 716 0 
L 50 0 
L 1831 4666 
z
" transform="scale(0.015625)"/>
       <path id="DejaVuSans-53" d="M 3425 4513 
L 3425 3897 
Q 3066 4069 2747 4153 
Q 2428 4238 2131 4238 
Q 1616 4238 1336 4038 
Q 1056 3838 1056 3469 
Q 1056 3159 1242 3001 
Q 1428 2844 1947 2747 
L 2328 2669 
Q 3034 2534 3370 2195 
Q 3706 1856 3706 1288 
Q 3706 609 3251 259 
Q 2797 -91 1919 -91 
Q 1588 -91 1214 -16 
Q 841 59 441 206 
L 441 856 
Q 825 641 1194 531 
Q 1563 422 1919 422 
Q 2459 422 2753 634 
Q 3047 847 3047 1241 
Q 3047 1584 2836 1778 
Q 2625 1972 2144 2069 
L 1759 2144 
Q 1053 2284 737 2584 
Q 422 2884 422 3419 
Q 422 4038 858 4394 
Q 1294 4750 2059 4750 
Q 2388 4750 2728 4690 
Q 3069 4631 3425 4513 
z
" transform="scale(0.015625)"/>
       <path id="DejaVuSans-45" d="M 628 4666 
L 3578 4666 
L 3578 4134 
L 1259 4134 
L 1259 2753 
L 3481 2753 
L 3481 2222 
L 1259 2222 
L 1259 531 
L 3634 531 
L 3634 0 
L 628 0 
L 628 4666 
z
" transform="scale(0.015625)"/>
       <path id="DejaVuSans-52" d="M 2841 2188 
Q 3044 2119 3236 1894 
Q 3428 1669 3622 1275 
L 4263 0 
L 3584 0 
L 2988 1197 
Q 2756 1666 2539 1819 
Q 2322 1972 1947 1972 
L 1259 1972 
L 1259 0 
L 628 0 
L 628 4666 
L 2053 4666 
Q 2853 4666 3247 4331 
Q 3641 3997 3641 3322 
Q 3641 2881 3436 2590 
Q 3231 2300 2841 2188 
z
M 1259 4147 
L 1259 2491 
L 2053 2491 
Q 2509 2491 2742 2702 
Q 2975 2913 2975 3322 
Q 2975 3731 2742 3939 
Q 2509 4147 2053 4147 
L 1259 4147 
z
" transform="scale(0.015625)"/>
      </defs>
      <use xlink:href="#DejaVuSans-50"/>
      <use xlink:href="#DejaVuSans-48" transform="translate(60.302734 0)"/>
      <use xlink:href="#DejaVuSans-41" transform="translate(135.498047 0)"/>
      <use xlink:href="#DejaVuSans-53" transform="translate(203.90625 0)"/>
      <use xlink:href="#DejaVuSans-54" transform="translate(267.382812 0)"/>
      <use xlink:href="#DejaVuSans-45" transform="translate(328.466797 0)"/>
      <use xlink:href="#DejaVuSans-52" transform="translate(391.650391 0)"/>
     </g>
    </g>
    <g id="line2d_71">
     <path d="M 894.28 100.130938 
L 904.28 100.130938 
L 914.28 100.130938 
" style="fill: none; stroke: #9467bd; stroke-width: 2; stroke-linecap: square"/>
     <g>
      <use xlink:href="#mfd4aa3aa52" x="904.28" y="100.130938" style="fill: #9467bd; stroke: #9467bd"/>
     </g>
    </g>
    <g id="text_36">
     <!-- HostPhinder -->
     <g transform="translate(922.28 103.630938) scale(0.1 -0.1)">
      <use xlink:href="#DejaVuSans-48"/>
      <use xlink:href="#DejaVuSans-6f" transform="translate(75.195312 0)"/>
      <use xlink:href="#DejaVuSans-73" transform="translate(136.376953 0)"/>
      <use xlink:href="#DejaVuSans-74" transform="translate(188.476562 0)"/>
      <use xlink:href="#DejaVuSans-50" transform="translate(227.685547 0)"/>
      <use xlink:href="#DejaVuSans-68" transform="translate(287.988281 0)"/>
      <use xlink:href="#DejaVuSans-69" transform="translate(351.367188 0)"/>
      <use xlink:href="#DejaVuSans-6e" transform="translate(379.150391 0)"/>
      <use xlink:href="#DejaVuSans-64" transform="translate(442.529297 0)"/>
      <use xlink:href="#DejaVuSans-65" transform="translate(506.005859 0)"/>
      <use xlink:href="#DejaVuSans-72" transform="translate(567.529297 0)"/>
     </g>
    </g>
    <g id="line2d_72">
     <path d="M 894.28 114.809062 
L 904.28 114.809062 
L 914.28 114.809062 
" style="fill: none; stroke: #8c564b; stroke-width: 2; stroke-linecap: square"/>
     <g>
      <use xlink:href="#mf08a2fc945" x="904.28" y="114.809062" style="fill: #8c564b; stroke: #8c564b"/>
     </g>
    </g>
    <g id="text_37">
     <!-- PhaGCN -->
     <g transform="translate(922.28 118.309062) scale(0.1 -0.1)">
      <defs>
       <path id="DejaVuSans-47" d="M 3809 666 
L 3809 1919 
L 2778 1919 
L 2778 2438 
L 4434 2438 
L 4434 434 
Q 4069 175 3628 42 
Q 3188 -91 2688 -91 
Q 1594 -91 976 548 
Q 359 1188 359 2328 
Q 359 3472 976 4111 
Q 1594 4750 2688 4750 
Q 3144 4750 3555 4637 
Q 3966 4525 4313 4306 
L 4313 3634 
Q 3963 3931 3569 4081 
Q 3175 4231 2741 4231 
Q 1884 4231 1454 3753 
Q 1025 3275 1025 2328 
Q 1025 1384 1454 906 
Q 1884 428 2741 428 
Q 3075 428 3337 486 
Q 3600 544 3809 666 
z
" transform="scale(0.015625)"/>
      </defs>
      <use xlink:href="#DejaVuSans-50"/>
      <use xlink:href="#DejaVuSans-68" transform="translate(60.302734 0)"/>
      <use xlink:href="#DejaVuSans-61" transform="translate(123.681641 0)"/>
      <use xlink:href="#DejaVuSans-47" transform="translate(184.960938 0)"/>
      <use xlink:href="#DejaVuSans-43" transform="translate(262.451172 0)"/>
      <use xlink:href="#DejaVuSans-4e" transform="translate(332.275391 0)"/>
     </g>
    </g>
    <g id="line2d_73">
     <path d="M 894.28 129.487188 
L 904.28 129.487188 
L 914.28 129.487188 
" style="fill: none; stroke: #e377c2; stroke-width: 2; stroke-linecap: square"/>
     <g>
      <use xlink:href="#m3369563121" x="904.28" y="129.487188" style="fill: #e377c2; stroke: #e377c2"/>
     </g>
    </g>
    <g id="text_38">
     <!-- CrisprOpenDB -->
     <g transform="translate(922.28 132.987188) scale(0.1 -0.1)">
      <defs>
       <path id="DejaVuSans-4f" d="M 2522 4238 
Q 1834 4238 1429 3725 
Q 1025 3213 1025 2328 
Q 1025 1447 1429 934 
Q 1834 422 2522 422 
Q 3209 422 3611 934 
Q 4013 1447 4013 2328 
Q 4013 3213 3611 3725 
Q 3209 4238 2522 4238 
z
M 2522 4750 
Q 3503 4750 4090 4092 
Q 4678 3434 4678 2328 
Q 4678 1225 4090 567 
Q 3503 -91 2522 -91 
Q 1538 -91 948 565 
Q 359 1222 359 2328 
Q 359 3434 948 4092 
Q 1538 4750 2522 4750 
z
" transform="scale(0.015625)"/>
       <path id="DejaVuSans-44" d="M 1259 4147 
L 1259 519 
L 2022 519 
Q 2988 519 3436 956 
Q 3884 1394 3884 2338 
Q 3884 3275 3436 3711 
Q 2988 4147 2022 4147 
L 1259 4147 
z
M 628 4666 
L 1925 4666 
Q 3281 4666 3915 4102 
Q 4550 3538 4550 2338 
Q 4550 1131 3912 565 
Q 3275 0 1925 0 
L 628 0 
L 628 4666 
z
" transform="scale(0.015625)"/>
       <path id="DejaVuSans-42" d="M 1259 2228 
L 1259 519 
L 2272 519 
Q 2781 519 3026 730 
Q 3272 941 3272 1375 
Q 3272 1813 3026 2020 
Q 2781 2228 2272 2228 
L 1259 2228 
z
M 1259 4147 
L 1259 2741 
L 2194 2741 
Q 2656 2741 2882 2914 
Q 3109 3088 3109 3444 
Q 3109 3797 2882 3972 
Q 2656 4147 2194 4147 
L 1259 4147 
z
M 628 4666 
L 2241 4666 
Q 2963 4666 3353 4366 
Q 3744 4066 3744 3513 
Q 3744 3084 3544 2831 
Q 3344 2578 2956 2516 
Q 3422 2416 3680 2098 
Q 3938 1781 3938 1306 
Q 3938 681 3513 340 
Q 3088 0 2303 0 
L 628 0 
L 628 4666 
z
" transform="scale(0.015625)"/>
      </defs>
      <use xlink:href="#DejaVuSans-43"/>
      <use xlink:href="#DejaVuSans-72" transform="translate(69.824219 0)"/>
      <use xlink:href="#DejaVuSans-69" transform="translate(110.9375 0)"/>
      <use xlink:href="#DejaVuSans-73" transform="translate(138.720703 0)"/>
      <use xlink:href="#DejaVuSans-70" transform="translate(190.820312 0)"/>
      <use xlink:href="#DejaVuSans-72" transform="translate(254.296875 0)"/>
      <use xlink:href="#DejaVuSans-4f" transform="translate(295.410156 0)"/>
      <use xlink:href="#DejaVuSans-70" transform="translate(374.121094 0)"/>
      <use xlink:href="#DejaVuSans-65" transform="translate(437.597656 0)"/>
      <use xlink:href="#DejaVuSans-6e" transform="translate(499.121094 0)"/>
      <use xlink:href="#DejaVuSans-44" transform="translate(562.5 0)"/>
      <use xlink:href="#DejaVuSans-42" transform="translate(639.501953 0)"/>
     </g>
    </g>
    <g id="line2d_74">
     <path d="M 894.28 144.165312 
L 904.28 144.165312 
L 914.28 144.165312 
" style="fill: none; stroke: #7f7f7f; stroke-width: 2; stroke-linecap: square"/>
     <g>
      <use xlink:href="#m0de4e6241e" x="904.28" y="144.165312" style="fill: #7f7f7f; stroke: #7f7f7f"/>
     </g>
    </g>
    <g id="text_39">
     <!-- PHISDetector -->
     <g transform="translate(922.28 147.665312) scale(0.1 -0.1)">
      <defs>
       <path id="DejaVuSans-63" d="M 3122 3366 
L 3122 2828 
Q 2878 2963 2633 3030 
Q 2388 3097 2138 3097 
Q 1578 3097 1268 2742 
Q 959 2388 959 1747 
Q 959 1106 1268 751 
Q 1578 397 2138 397 
Q 2388 397 2633 464 
Q 2878 531 3122 666 
L 3122 134 
Q 2881 22 2623 -34 
Q 2366 -91 2075 -91 
Q 1284 -91 818 406 
Q 353 903 353 1747 
Q 353 2603 823 3093 
Q 1294 3584 2113 3584 
Q 2378 3584 2631 3529 
Q 2884 3475 3122 3366 
z
" transform="scale(0.015625)"/>
      </defs>
      <use xlink:href="#DejaVuSans-50"/>
      <use xlink:href="#DejaVuSans-48" transform="translate(60.302734 0)"/>
      <use xlink:href="#DejaVuSans-49" transform="translate(135.498047 0)"/>
      <use xlink:href="#DejaVuSans-53" transform="translate(164.990234 0)"/>
      <use xlink:href="#DejaVuSans-44" transform="translate(228.466797 0)"/>
      <use xlink:href="#DejaVuSans-65" transform="translate(305.46875 0)"/>
      <use xlink:href="#DejaVuSans-74" transform="translate(366.992188 0)"/>
      <use xlink:href="#DejaVuSans-65" transform="translate(406.201172 0)"/>
      <use xlink:href="#DejaVuSans-63" transform="translate(467.724609 0)"/>
      <use xlink:href="#DejaVuSans-74" transform="translate(522.705078 0)"/>
      <use xlink:href="#DejaVuSans-6f" transform="translate(561.914062 0)"/>
      <use xlink:href="#DejaVuSans-72" transform="translate(623.095703 0)"/>
     </g>
    </g>
    <g id="line2d_75">
     <path d="M 894.28 158.843437 
L 904.28 158.843437 
L 914.28 158.843437 
" style="fill: none; stroke: #bcbd22; stroke-width: 2; stroke-linecap: square"/>
     <g>
      <use xlink:href="#mde43c0e358" x="904.28" y="158.843437" style="fill: #bcbd22; stroke: #bcbd22"/>
     </g>
    </g>
    <g id="text_40">
     <!-- ViQuaS -->
     <g transform="translate(922.28 162.343437) scale(0.1 -0.1)">
      <defs>
       <path id="DejaVuSans-51" d="M 2522 4238 
Q 1834 4238 1429 3725 
Q 1025 3213 1025 2328 
Q 1025 1447 1429 934 
Q 1834 422 2522 422 
Q 3209 422 3611 934 
Q 4013 1447 4013 2328 
Q 4013 3213 3611 3725 
Q 3209 4238 2522 4238 
z
M 3406 84 
L 4238 -825 
L 3475 -825 
L 2784 -78 
Q 2681 -84 2626 -87 
Q 2572 -91 2522 -91 
Q 1538 -91 948 567 
Q 359 1225 359 2328 
Q 359 3434 948 4092 
Q 1538 4750 2522 4750 
Q 3503 4750 4090 4092 
Q 4678 3434 4678 2328 
Q 4678 1516 4351 937 
Q 4025 359 3406 84 
z
" transform="scale(0.015625)"/>
      </defs>
      <use xlink:href="#DejaVuSans-56"/>
      <use xlink:href="#DejaVuSans-69" transform="translate(66.158203 0)"/>
      <use xlink:href="#DejaVuSans-51" transform="translate(93.941406 0)"/>
      <use xlink:href="#DejaVuSans-75" transform="translate(172.652344 0)"/>
      <use xlink:href="#DejaVuSans-61" transform="translate(236.03125 0)"/>
      <use xlink:href="#DejaVuSans-53" transform="translate(297.310547 0)"/>
     </g>
    </g>
    <g id="line2d_76">
     <path d="M 894.28 173.521562 
L 904.28 173.521562 
L 914.28 173.521562 
" style="fill: none; stroke: #17becf; stroke-width: 2; stroke-linecap: square"/>
     <g>
      <use xlink:href="#m98333c36a3" x="904.28" y="173.521562" style="fill: #17becf; stroke: #17becf"/>
     </g>
    </g>
    <g id="text_41">
     <!-- VIPERdb -->
     <g transform="translate(922.28 177.021562) scale(0.1 -0.1)">
      <use xlink:href="#DejaVuSans-56"/>
      <use xlink:href="#DejaVuSans-49" transform="translate(68.408203 0)"/>
      <use xlink:href="#DejaVuSans-50" transform="translate(97.900391 0)"/>
      <use xlink:href="#DejaVuSans-45" transform="translate(158.203125 0)"/>
      <use xlink:href="#DejaVuSans-52" transform="translate(221.386719 0)"/>
      <use xlink:href="#DejaVuSans-64" transform="translate(290.869141 0)"/>
      <use xlink:href="#DejaVuSans-62" transform="translate(354.345703 0)"/>
     </g>
    </g>
   </g>
  </g>
 </g>
 <defs>
  <clipPath id="p86b61d3a71">
   <rect x="54.47" y="28.32" width="830.81" height="502.12"/>
  </clipPath>
 </defs>
</svg>
